<svg width="587" height="443" viewBox="0 0 587 443" fill="none" xmlns="http://www.w3.org/2000/svg">
<g clip-path="url(#clip0_1998_8)">
<path d="M586.466 0H0V443H586.466V0Z" fill="white"/>
<path d="M32.004 44.1061C34.9121 43.1367 37.8202 44.1061 40.7283 45.0755C43.6364 46.0448 45.0905 47.0142 47.9986 48.4683C50.9067 49.9223 57.2075 52.3457 69.8093 55.2538C81.9944 58.0658 102.283 61.07 113.915 61.07C125.547 61.07 164.807 81.4267 164.807 81.4267L132.818 110.992H52.8454C52.8454 110.992 47.9986 102.753 45.5751 99.8446C43.1517 96.9365 34.9121 93.0591 30.55 86.7582C29.2375 84.8623 27.1591 80.4354 27.6419 75.1258C28.1265 69.7943 31.2956 63.4934 31.0347 60.1006C30.1023 47.9807 29.0959 45.0755 32.004 44.1061Z" fill="#D33E3C"/>
<path d="M62.2076 192.013C62.2076 192.013 90.4811 180.777 109.161 168.956C114.254 165.734 115.764 161.927 119.764 156.109C123.299 150.969 135.921 147.344 137.94 147.344C139.96 147.344 137.584 160.668 139.603 173.516C140.421 178.718 141.979 186.43 141.979 186.43C141.979 186.43 148.592 205.863 154.628 217.138C158.14 223.697 159.407 228.071 164.322 233.617C168.077 237.853 170.219 238.844 173.531 242.341C176.761 245.752 180.317 248.158 180.317 248.158C180.317 248.158 183.709 253.004 185.163 257.851C185.879 260.233 191.586 265.176 193.888 266.088C196.161 266.988 198.764 267.076 201.158 267.545C204.858 268.269 206.93 268.404 210.367 269.484C214.581 270.806 217.047 269.805 220.741 272.255C224.146 274.514 228.314 279.963 228.314 279.963L253.054 304.118L283.347 331.356C283.347 331.356 283.041 333.02 281.615 335.4C279.596 338.774 283.662 338.917 285.493 343.64C286.92 347.317 288.196 349.942 287.432 353.818C287.084 355.579 286.247 357.689 284.523 358.665C282.507 359.807 279.612 358.875 277.738 361.089C276.271 362.823 277.17 365.684 275.269 366.905C273.767 367.868 261.637 365.789 261.637 365.789C261.637 365.789 249.52 363.733 233.868 364.761C229.028 365.078 227.268 366.214 222.969 369.813C218.577 373.491 216.789 377.188 213.76 383.869C211.579 388.68 210.295 394.356 206.005 393.078C203.167 392.231 197.765 386.292 197.765 386.292C197.765 386.292 192.677 371.735 186.617 363.512C183.588 359.4 181.388 354.39 178.863 352.849C176.698 351.527 174.495 352.277 171.108 354.303C166.534 357.04 162.657 361.912 158.506 365.935C154.367 369.95 155.239 370.065 149.782 371.267C147.47 371.776 139.763 371.502 137.18 371.267C129.481 370.568 129.546 369.9 126.517 372.47C122.568 375.82 123.676 378.02 122.639 383.869C120.315 397 121.185 411.496 116.339 415.858C112.442 419.365 103.725 418.216 98.4052 415.858C91.365 412.736 87.2396 410.918 83.8652 404.225C80.8458 398.237 76.5344 393.487 78.049 386.292C79.362 380.055 82.3134 377.534 83.8652 371.267C86.7345 359.68 88.3284 351.408 85.804 342.671C84.1498 336.946 79.7051 332.183 74.6563 329.1C69.7328 326.093 63.9932 329.584 58.1771 334.916C52.3609 340.247 50.4221 339.763 45.0906 339.763C39.8115 339.763 37.8093 340.66 32.9735 338.551C29.4393 337.009 29.7222 336.603 26.188 332.492C22.3108 327.982 23.8733 327.783 19.6477 322.314C16.5403 318.292 10.7185 315.336 9.70878 310.197C9.06869 306.939 9.82442 302.367 12.1322 300.019C15.6664 296.421 19.6477 292.748 19.6477 292.748C19.6477 292.748 27.5815 285.595 29.0961 283.539C30.6107 281.483 24.3413 278.208 21.8258 275.784C19.3517 273.401 19.6477 273.734 19.6477 269.955C19.6477 266.712 23.6868 265.664 27.7259 264.637C34.3327 262.956 32.8054 263.95 40.7285 261.244C45.6703 259.556 53.5523 257.204 60.1158 251.55C66.1608 246.344 67.6493 234.102 67.6493 234.102C67.6493 234.102 68.2948 229.033 69.8094 224.408C71.3241 219.783 73.2022 217.622 73.2022 217.622C74.7169 215.566 79.6721 210.566 83.3806 210.837V200.659C83.3806 200.659 74.6894 201.625 68.7343 197.354C66.7981 195.965 62.2076 192.013 62.2076 192.013Z" fill="#D43D3E"/>
<path d="M131.016 111.708C130.984 111.748 130.951 111.789 130.919 111.832C130.038 112.989 129.124 114.938 128.752 118.179C128.239 122.651 128.845 126.028 129.595 128.305C129.971 129.441 130.38 130.301 130.701 130.883C130.86 131.173 130.999 131.395 131.1 131.546C131.15 131.622 131.191 131.681 131.22 131.722C131.236 131.743 131.247 131.759 131.256 131.771L131.268 131.785L131.272 131.791L131.272 131.792L131.273 131.793C131.273 131.794 131.273 131.794 131.848 131.349L131.273 131.794L131.291 131.816L131.309 131.837C134.705 135.594 136.632 140.422 137.615 144.347C138.106 146.306 138.357 148.019 138.441 149.232C138.481 149.806 138.482 150.249 138.458 150.545C135.157 150.962 132.073 152.916 129.831 154.73C128.646 155.69 127.669 156.631 126.989 157.332C126.649 157.683 126.382 157.976 126.199 158.181C126.108 158.284 126.037 158.364 125.988 158.421C125.964 158.449 125.946 158.471 125.933 158.486L125.92 158.502L125.918 158.504L125.907 158.516L125.861 158.57L125.68 158.777C125.523 158.958 125.295 159.219 125.013 159.546C124.449 160.198 123.666 161.109 122.788 162.14C121.035 164.201 118.899 166.756 117.385 168.709C116.001 170.496 113.396 172.01 110.577 173.344C109.396 173.903 108.204 174.419 107.078 174.907C106.875 174.994 106.675 175.081 106.476 175.167C105.191 175.725 104.001 176.253 103.09 176.758C102.261 177.216 100.523 177.956 98.3325 178.823C96.1575 179.684 93.5824 180.65 91.1128 181.558C88.6441 182.466 86.2841 183.313 84.5412 183.934C83.6698 184.244 82.9529 184.497 82.4539 184.673C82.3704 184.703 82.2931 184.73 82.2221 184.755C82.0809 184.805 81.965 184.845 81.8767 184.876L81.7257 184.929L81.6872 184.942L81.6775 184.946L81.6751 184.947C81.6749 184.947 81.6743 184.947 81.9142 185.634L81.6751 184.947L81.6494 184.956L81.6253 184.967L63.0468 193.013L53.5993 183.866L52.6029 124.067L52.6029 124.059L52.6027 124.053L52.145 111.24L131.016 111.708Z" fill="#D03F3A"/>
<path d="M81.6751 184.947L81.6775 184.946L81.6872 184.942L81.7257 184.929L81.8767 184.876C81.965 184.845 82.0809 184.805 82.2221 184.755C82.2931 184.73 82.3704 184.703 82.4539 184.673C82.9529 184.497 83.6698 184.244 84.5412 183.934C86.2841 183.313 88.6441 182.466 91.1128 181.558C93.5824 180.65 96.1575 179.684 98.3325 178.823C100.523 177.956 102.261 177.216 103.09 176.758C104.001 176.253 105.191 175.725 106.476 175.167C106.675 175.081 106.875 174.994 107.078 174.907C108.204 174.419 109.396 173.903 110.577 173.344C113.396 172.01 116.001 170.496 117.385 168.709C118.899 166.756 121.035 164.201 122.788 162.14C123.666 161.109 124.449 160.198 125.013 159.546C125.295 159.219 125.523 158.958 125.68 158.777L125.861 158.57L125.907 158.516L125.918 158.504L125.92 158.502L125.933 158.486C125.946 158.471 125.964 158.449 125.988 158.421C126.037 158.364 126.108 158.284 126.199 158.181C126.382 157.976 126.649 157.683 126.989 157.332C127.669 156.631 128.646 155.69 129.831 154.73C132.073 152.916 135.157 150.962 138.458 150.545C138.482 150.249 138.481 149.806 138.441 149.232C138.357 148.019 138.106 146.306 137.615 144.347C136.632 140.422 134.705 135.594 131.309 131.837L131.291 131.816L131.273 131.794L131.848 131.349C131.273 131.794 131.273 131.794 131.273 131.793L131.272 131.792L131.272 131.791L131.268 131.785L131.256 131.771C131.247 131.759 131.236 131.743 131.22 131.722C131.191 131.681 131.15 131.622 131.1 131.546C130.999 131.395 130.86 131.173 130.701 130.883C130.38 130.301 129.971 129.441 129.595 128.305C128.845 126.028 128.239 122.651 128.752 118.179C129.124 114.938 130.038 112.989 130.919 111.832C130.951 111.789 130.984 111.748 131.016 111.708L52.145 111.24L52.6027 124.053L52.6029 124.059L52.6029 124.067L53.5993 183.866L63.0468 193.013L81.6253 184.967L81.6494 184.956L81.6751 184.947ZM81.6751 184.947C81.6749 184.947 81.6743 184.947 81.9142 185.634L81.6751 184.947Z" stroke="black" stroke-width="1.45405"/>
<path d="M84.3497 341.236H95.982C98.8897 340.913 104.221 339.2 102.283 334.935C100.344 330.67 97.2748 327.019 95.982 325.726C95.4974 325.403 94.4311 323.884 94.0433 320.395C93.0739 311.67 95.8384 303.395 102.283 297.595C111.976 288.871 125.547 287.462 129.425 289.375M129.425 289.375C132.333 290.81 133.302 290.373 137.664 295.172M129.425 289.375C121.185 277.258 103.252 261.748 97.9204 260.294M137.664 295.172L170.623 290.81C172.077 289.375 174.985 283.65 174.985 278.208C174.985 267.06 183.709 260.275 185.163 259.79C186.617 259.305 190.428 265.091 194.857 267.06C199.219 268.999 206.005 268.029 213.275 269.968C217.637 271.131 222.484 273.846 234.601 287.901C232.177 290.81 229.754 292.424 229.754 295.676C229.754 298.584 228.3 303.392 226.361 305.35C224.657 307.073 214.244 322.799 200.673 324.272C191.405 325.278 177.408 324.272 173.046 321.849C162.184 315.814 154.905 318.436 150.266 325.726M137.664 295.172C147.358 305.835 149.136 317.692 150.266 325.726M97.9204 260.294C91.842 258.636 66.9011 244.299 65.9317 242.845C65.1562 241.682 67.5473 234.929 68.8398 231.698H107.614C111.007 231.698 112.655 230.728 115.369 226.851C119.44 221.035 128.94 217.157 135.241 220.065C141.542 222.973 143.965 229.274 143.965 235.09C143.965 240.907 142.996 254.478 139.118 255.447C135.241 256.416 133.302 255.932 130.879 255.932C128.455 255.932 122.155 252.52 118.277 257.87C115.35 261.912 112.946 254.962 107.614 260.294C103.349 264.559 102.283 261.748 97.9204 260.294ZM150.266 325.726C149.662 326.676 149.762 335.4 155.598 341.236C157.517 343.155 163.353 346.063 170.138 346.063C172.591 346.063 175.47 349.133 177.408 353.334" stroke="black" stroke-width="1.45405"/>
<path d="M39.2742 261.729L46.0597 270.938C47.0291 272.392 47.9985 273.846 47.9985 276.269C47.9985 279.095 49.4525 281.601 51.3912 282.57C53.5588 283.654 61.5696 287.417 63.5083 291.294C65.447 295.172 64.0917 300.095 66.9011 304.381C68.7487 307.2 70.8916 310.875 71.2632 313.105C71.7479 316.013 71.7479 320.86 69.3245 328.13" stroke="black" stroke-width="1.45405"/>
<path d="M69.4879 90.151H67.6511L70.4499 82.0436H72.6589L75.4536 90.151H73.6169L71.5861 83.8962H71.5227L69.4879 90.151ZM69.3731 86.9642H73.7119V88.3023H69.3731V86.9642ZM81.4243 84.6642C81.369 84.4715 81.2912 84.3013 81.1908 84.1535C81.0905 84.003 80.9678 83.8764 80.8227 83.7735C80.6802 83.6679 80.5165 83.5874 80.3318 83.532C80.1497 83.4766 79.9478 83.4489 79.7261 83.4489C79.3118 83.4489 78.9475 83.5518 78.6335 83.7577C78.3221 83.9635 78.0793 84.263 77.9051 84.6563C77.731 85.0469 77.6438 85.5246 77.6438 86.0893C77.6438 86.6541 77.7296 87.1344 77.9012 87.5303C78.0727 87.9262 78.3155 88.2283 78.6296 88.4368C78.9437 88.6427 79.3144 88.7456 79.7419 88.7456C80.1299 88.7456 80.4611 88.677 80.7356 88.5398C81.0127 88.3999 81.2238 88.2033 81.369 87.9499C81.5167 87.6965 81.5907 87.397 81.5907 87.0513L81.939 87.1028H79.8488V85.8122H83.2414V86.8336C83.2414 87.5462 83.091 88.1584 82.7902 88.6704C82.4893 89.1797 82.0749 89.573 81.5471 89.8501C81.0193 90.1246 80.4149 90.2618 79.7341 90.2618C78.974 90.2618 78.3063 90.0942 77.731 89.759C77.1556 89.4212 76.7069 88.9422 76.385 88.322C76.0656 87.6992 75.9059 86.9603 75.9059 86.1051C75.9059 85.448 76.0009 84.8621 76.1909 84.3475C76.3837 83.8302 76.6528 83.3922 76.9985 83.0332C77.3443 82.6742 77.7468 82.4012 78.206 82.2138C78.6651 82.0264 79.1626 81.9327 79.6984 81.9327C80.1576 81.9327 80.5852 81.9999 80.9811 82.1346C81.3769 82.2665 81.7279 82.4539 82.034 82.6967C82.3428 82.9396 82.5949 83.2285 82.7902 83.5636C82.9854 83.8962 83.1108 84.263 83.1662 84.6642H81.4243ZM85.6761 90.151H83.8392L86.638 82.0436H88.847L91.6418 90.151H89.805L87.7742 83.8962H87.7108L85.6761 90.151ZM85.5612 86.9642H89.9V88.3023H85.5612V86.9642ZM91.3182 83.4568V82.0436H97.9767V83.4568H95.4946V90.151H93.8002V83.4568H91.3182ZM104.081 82.0436H105.796V87.3086C105.796 87.8998 105.654 88.4171 105.372 88.8604C105.092 89.3038 104.7 89.6495 104.196 89.8976C103.692 90.143 103.105 90.2657 102.434 90.2657C101.761 90.2657 101.173 90.143 100.669 89.8976C100.165 89.6495 99.7729 89.3038 99.4927 88.8604C99.2136 88.4171 99.073 87.8998 99.073 87.3086V82.0436H100.788V87.1621C100.788 87.471 100.855 87.7454 100.989 87.9856C101.126 88.2257 101.319 88.4144 101.567 88.5516C101.815 88.6889 102.104 88.7575 102.434 88.7575C102.766 88.7575 103.056 88.6889 103.301 88.5516C103.55 88.4144 103.74 88.2257 103.875 87.9856C104.013 87.7454 104.081 87.471 104.081 87.1621V82.0436Z" fill="white"/>
<path d="M148.812 116.892C148.76 116.708 148.685 116.545 148.589 116.403C148.493 116.26 148.376 116.139 148.237 116.04C148.101 115.939 147.945 115.861 147.767 115.809C147.594 115.756 147.4 115.73 147.188 115.73C146.792 115.73 146.443 115.828 146.143 116.024C145.845 116.222 145.613 116.508 145.446 116.884C145.28 117.258 145.196 117.715 145.196 118.255C145.196 118.795 145.279 119.254 145.443 119.633C145.606 120.012 145.839 120.301 146.14 120.501C146.44 120.698 146.794 120.796 147.203 120.796C147.574 120.796 147.891 120.731 148.154 120.599C148.419 120.465 148.621 120.277 148.76 120.035C148.901 119.792 148.972 119.506 148.972 119.175L149.305 119.224H147.306V117.99H150.55V118.967C150.55 119.649 150.407 120.234 150.119 120.724C149.831 121.211 149.434 121.588 148.93 121.852C148.425 122.115 147.847 122.246 147.195 122.246C146.468 122.246 145.83 122.086 145.28 121.765C144.729 121.442 144.3 120.984 143.992 120.39C143.687 119.795 143.534 119.089 143.534 118.27C143.534 117.641 143.625 117.081 143.806 116.589C143.99 116.094 144.248 115.675 144.579 115.332C144.909 114.988 145.295 114.727 145.734 114.548C146.174 114.369 146.649 114.279 147.161 114.279C147.6 114.279 148.009 114.343 148.389 114.472C148.768 114.598 149.103 114.778 149.396 115.01C149.691 115.242 149.932 115.518 150.119 115.839C150.306 116.157 150.426 116.508 150.478 116.892H148.812ZM153.528 122.14L151.309 114.385H153.1L154.384 119.774H154.448L155.864 114.385H157.398L158.81 119.785H158.878L160.161 114.385H161.953L159.734 122.14H158.136L156.659 117.07H156.599L155.126 122.14H153.528ZM162.83 122.14V114.385H168.056V115.737H164.47V117.585H167.787V118.936H164.47V120.788H168.071V122.14H162.83ZM169.36 122.14V114.385H172.419C173.005 114.385 173.505 114.49 173.919 114.699C174.336 114.907 174.652 115.2 174.869 115.581C175.089 115.96 175.198 116.406 175.198 116.918C175.198 117.434 175.088 117.877 174.865 118.247C174.643 118.616 174.321 118.899 173.899 119.095C173.481 119.292 172.974 119.391 172.377 119.391H170.329V118.074H172.113C172.425 118.074 172.686 118.03 172.892 117.945C173.1 117.858 173.254 117.73 173.355 117.558C173.458 117.386 173.51 117.173 173.51 116.918C173.51 116.661 173.458 116.444 173.355 116.267C173.254 116.09 173.099 115.956 172.888 115.865C172.682 115.772 172.42 115.726 172.105 115.726H170.999V122.14H169.36ZM173.547 118.611L175.475 122.14H173.665L171.779 118.611H173.547ZM179.951 117.623V118.902H176.414V117.623H179.951ZM182.882 122.14L180.664 114.385H182.455L183.738 119.774H183.802L185.219 114.385H186.752L188.164 119.785H188.232L189.517 114.385H191.307L189.088 122.14H187.491L186.013 117.07H185.953L184.48 122.14H182.882ZM192.185 122.14V114.385H197.41V115.737H193.825V117.585H197.142V118.936H193.825V120.788H197.426V122.14H192.185ZM202.921 116.616C202.891 116.31 202.76 116.073 202.53 115.903C202.301 115.735 201.99 115.65 201.596 115.65C201.328 115.65 201.102 115.688 200.917 115.764C200.733 115.836 200.592 115.939 200.494 116.07C200.398 116.202 200.349 116.35 200.349 116.517C200.345 116.655 200.374 116.777 200.437 116.88C200.503 116.984 200.592 117.073 200.706 117.15C200.82 117.222 200.95 117.286 201.1 117.343C201.249 117.395 201.408 117.441 201.577 117.478L202.274 117.645C202.612 117.721 202.922 117.823 203.205 117.949C203.487 118.075 203.732 118.23 203.94 118.414C204.146 118.598 204.306 118.815 204.421 119.065C204.536 119.315 204.596 119.602 204.598 119.925C204.596 120.399 204.475 120.811 204.235 121.159C203.997 121.505 203.654 121.774 203.205 121.966C202.758 122.156 202.219 122.25 201.588 122.25C200.962 122.25 200.416 122.154 199.952 121.962C199.491 121.77 199.129 121.487 198.869 121.11C198.611 120.732 198.477 120.263 198.464 119.705H200.051C200.068 119.966 200.143 120.182 200.274 120.356C200.408 120.528 200.586 120.658 200.808 120.746C201.033 120.832 201.287 120.875 201.569 120.875C201.847 120.875 202.087 120.835 202.292 120.754C202.499 120.673 202.659 120.561 202.773 120.418C202.887 120.273 202.943 120.108 202.943 119.921C202.943 119.747 202.892 119.6 202.788 119.482C202.688 119.363 202.538 119.262 202.341 119.179C202.148 119.095 201.909 119.02 201.626 118.952L200.782 118.74C200.127 118.581 199.612 118.332 199.233 117.994C198.854 117.656 198.666 117.2 198.669 116.626C198.666 116.157 198.791 115.747 199.044 115.396C199.299 115.045 199.648 114.771 200.093 114.574C200.536 114.377 201.042 114.279 201.607 114.279C202.182 114.279 202.685 114.377 203.114 114.574C203.545 114.771 203.882 115.045 204.121 115.396C204.361 115.747 204.485 116.153 204.492 116.616H202.921ZM205.406 115.737V114.385H211.775V115.737H209.4V122.14H207.78V115.737H205.406Z" fill="#AFA2A2"/>
<path d="M210.851 193.472C210.799 193.288 210.724 193.125 210.628 192.983C210.533 192.84 210.415 192.719 210.277 192.62C210.14 192.519 209.984 192.441 209.806 192.389C209.633 192.336 209.439 192.309 209.228 192.309C208.831 192.309 208.482 192.407 208.183 192.604C207.884 192.802 207.653 193.088 207.486 193.464C207.319 193.838 207.236 194.295 207.236 194.835C207.236 195.375 207.318 195.834 207.482 196.213C207.646 196.592 207.878 196.881 208.179 197.081C208.479 197.277 208.833 197.375 209.242 197.375C209.614 197.375 209.931 197.31 210.193 197.179C210.458 197.045 210.66 196.857 210.799 196.614C210.941 196.372 211.011 196.086 211.011 195.755L211.344 195.804H209.345V194.57H212.59V195.547C212.59 196.229 212.446 196.814 212.158 197.304C211.87 197.791 211.474 198.167 210.97 198.432C210.465 198.695 209.886 198.826 209.235 198.826C208.508 198.826 207.87 198.666 207.319 198.345C206.768 198.022 206.339 197.563 206.032 196.97C205.726 196.375 205.573 195.668 205.573 194.85C205.573 194.221 205.664 193.661 205.846 193.168C206.03 192.674 206.288 192.255 206.618 191.912C206.949 191.568 207.335 191.307 207.774 191.128C208.213 190.948 208.689 190.859 209.201 190.859C209.64 190.859 210.049 190.923 210.428 191.052C210.807 191.178 211.142 191.358 211.435 191.59C211.731 191.822 211.971 192.098 212.158 192.419C212.345 192.737 212.465 193.088 212.518 193.472H210.851ZM215.567 198.72L213.349 190.965H215.139L216.423 196.354H216.487L217.904 190.965H219.437L220.849 196.364H220.917L222.201 190.965H223.992L221.773 198.72H220.176L218.698 193.65H218.638L217.165 198.72H215.567ZM224.869 198.72V190.965H230.095V192.317H226.51V194.165H229.827V195.516H226.51V197.368H230.111V198.72H224.869ZM231.399 198.72V190.965H234.458C235.044 190.965 235.544 191.07 235.958 191.279C236.375 191.486 236.691 191.78 236.908 192.161C237.128 192.54 237.238 192.986 237.238 193.498C237.238 194.014 237.127 194.457 236.904 194.827C236.682 195.196 236.36 195.478 235.939 195.675C235.52 195.872 235.013 195.971 234.417 195.971H232.368V194.653H234.152C234.464 194.653 234.725 194.61 234.931 194.524C235.139 194.438 235.293 194.31 235.394 194.138C235.498 193.966 235.549 193.753 235.549 193.498C235.549 193.241 235.498 193.024 235.394 192.847C235.293 192.67 235.138 192.536 234.928 192.445C234.721 192.352 234.459 192.306 234.144 192.306H233.038V198.72H231.399ZM235.587 195.19L237.514 198.72H235.704L233.819 195.19H235.587Z" fill="#AFA2A2"/>
<path d="M256.117 287.901V280.147H257.756V283.566H257.859L260.65 280.147H262.615L259.737 283.619L262.649 287.901H260.687L258.563 284.713L257.756 285.698V287.901H256.117ZM270.157 284.024C270.157 284.869 269.997 285.59 269.676 286.183C269.358 286.776 268.924 287.229 268.374 287.542C267.826 287.852 267.21 288.007 266.526 288.007C265.837 288.007 265.218 287.851 264.671 287.538C264.123 287.225 263.69 286.772 263.372 286.179C263.054 285.586 262.895 284.867 262.895 284.024C262.895 283.179 263.054 282.459 263.372 281.865C263.69 281.272 264.123 280.82 264.671 280.51C265.218 280.197 265.837 280.041 266.526 280.041C267.21 280.041 267.826 280.197 268.374 280.51C268.924 280.82 269.358 281.272 269.676 281.865C269.997 282.459 270.157 283.179 270.157 284.024ZM268.495 284.024C268.495 283.476 268.413 283.014 268.249 282.638C268.088 282.262 267.859 281.977 267.563 281.783C267.269 281.588 266.922 281.491 266.526 281.491C266.13 281.491 265.783 281.588 265.489 281.783C265.193 281.977 264.963 282.262 264.8 282.638C264.638 283.014 264.557 283.476 264.557 284.024C264.557 284.572 264.638 285.034 264.8 285.41C264.963 285.786 265.193 286.071 265.489 286.265C265.783 286.46 266.13 286.557 266.526 286.557C266.922 286.557 267.269 286.46 267.563 286.265C267.859 286.071 268.088 285.786 268.249 285.41C268.413 285.034 268.495 284.572 268.495 284.024ZM277.858 280.147V287.901H276.443L273.068 283.021H273.011V287.901H271.372V280.147H272.81L276.159 285.023H276.226V280.147H277.858ZM283.42 282.377C283.39 282.072 283.259 281.834 283.029 281.665C282.8 281.496 282.489 281.412 282.095 281.412C281.827 281.412 281.601 281.449 281.416 281.525C281.232 281.598 281.091 281.7 280.993 281.831C280.897 281.963 280.848 282.111 280.848 282.278C280.844 282.417 280.873 282.538 280.936 282.642C281.002 282.745 281.091 282.835 281.205 282.911C281.319 282.984 281.449 283.048 281.599 283.104C281.748 283.156 281.907 283.202 282.076 283.24L282.773 283.407C283.111 283.482 283.421 283.584 283.704 283.71C283.986 283.836 284.231 283.991 284.439 284.175C284.645 284.359 284.805 284.577 284.92 284.827C285.035 285.077 285.095 285.364 285.097 285.686C285.095 286.161 284.974 286.572 284.734 286.92C284.496 287.267 284.153 287.535 283.704 287.727C283.257 287.917 282.718 288.011 282.087 288.011C281.461 288.011 280.915 287.915 280.451 287.723C279.99 287.531 279.628 287.248 279.368 286.871C279.11 286.493 278.976 286.025 278.963 285.466H280.55C280.567 285.727 280.642 285.943 280.773 286.118C280.907 286.289 281.085 286.419 281.307 286.508C281.532 286.594 281.786 286.636 282.068 286.636C282.346 286.636 282.586 286.597 282.791 286.515C282.998 286.435 283.158 286.322 283.272 286.179C283.386 286.034 283.442 285.87 283.442 285.683C283.442 285.508 283.391 285.362 283.287 285.243C283.186 285.124 283.037 285.023 282.84 284.94C282.647 284.857 282.407 284.781 282.125 284.713L281.281 284.501C280.626 284.342 280.111 284.094 279.732 283.756C279.353 283.417 279.165 282.962 279.167 282.388C279.165 281.919 279.29 281.509 279.543 281.158C279.798 280.807 280.147 280.532 280.591 280.336C281.035 280.139 281.54 280.041 282.106 280.041C282.681 280.041 283.184 280.139 283.613 280.336C284.044 280.532 284.381 280.807 284.62 281.158C284.86 281.509 284.984 281.915 284.991 282.377H283.42ZM286.2 287.901V280.147H287.839V283.346H291.168V280.147H292.804V287.901H291.168V284.698H287.839V287.901H286.2ZM295.795 280.147V287.901H294.156V280.147H295.795ZM301.351 282.377C301.321 282.072 301.19 281.834 300.961 281.665C300.731 281.496 300.42 281.412 300.026 281.412C299.759 281.412 299.533 281.449 299.348 281.525C299.164 281.598 299.022 281.7 298.924 281.831C298.828 281.963 298.78 282.111 298.78 282.278C298.775 282.417 298.804 282.538 298.867 282.642C298.933 282.745 299.022 282.835 299.136 282.911C299.25 282.984 299.381 283.048 299.53 283.104C299.679 283.156 299.838 283.202 300.007 283.24L300.704 283.407C301.042 283.482 301.352 283.584 301.635 283.71C301.918 283.836 302.163 283.991 302.37 284.175C302.577 284.359 302.738 284.577 302.851 284.827C302.966 285.077 303.026 285.364 303.028 285.686C303.026 286.161 302.905 286.572 302.665 286.92C302.427 287.267 302.084 287.535 301.635 287.727C301.189 287.917 300.65 288.011 300.019 288.011C299.392 288.011 298.847 287.915 298.382 287.723C297.921 287.531 297.559 287.248 297.299 286.871C297.043 286.493 296.907 286.025 296.894 285.466H298.481C298.499 285.727 298.573 285.943 298.704 286.118C298.838 286.289 299.016 286.419 299.238 286.508C299.463 286.594 299.717 286.636 299.999 286.636C300.277 286.636 300.518 286.597 300.722 286.515C300.93 286.435 301.09 286.322 301.203 286.179C301.317 286.034 301.374 285.87 301.374 285.683C301.374 285.508 301.322 285.362 301.219 285.243C301.118 285.124 300.969 285.023 300.772 284.94C300.578 284.857 300.339 284.781 300.056 284.713L299.212 284.501C298.558 284.342 298.042 284.094 297.663 283.756C297.285 283.417 297.096 282.962 297.099 282.388C297.096 281.919 297.221 281.509 297.474 281.158C297.729 280.807 298.079 280.532 298.523 280.336C298.967 280.139 299.472 280.041 300.037 280.041C300.613 280.041 301.115 280.139 301.544 280.336C301.976 280.532 302.312 280.807 302.551 281.158C302.791 281.509 302.915 281.915 302.923 282.377H301.351ZM304.132 287.901V280.147H305.771V283.346H309.1V280.147H310.735V287.901H309.1V284.698H305.771V287.901H304.132ZM313.424 287.901H311.666L314.344 280.147H316.457L319.131 287.901H317.373L315.43 281.919H315.37L313.424 287.901ZM313.314 284.853H317.464V286.133H313.314V284.853Z" fill="#AFA2A2"/>
<path d="M366.567 263.667H368.208V268.703C368.208 269.269 368.072 269.764 367.802 270.188C367.535 270.612 367.16 270.943 366.677 271.18C366.195 271.415 365.634 271.532 364.992 271.532C364.349 271.532 363.785 271.415 363.304 271.18C362.822 270.943 362.447 270.612 362.179 270.188C361.912 269.764 361.778 269.269 361.778 268.703V263.667H363.417V268.564C363.417 268.858 363.482 269.121 363.61 269.351C363.742 269.581 363.926 269.761 364.163 269.893C364.4 270.024 364.677 270.089 364.992 270.089C365.31 270.089 365.586 270.024 365.822 269.893C366.059 269.761 366.242 269.581 366.371 269.351C366.502 269.121 366.567 268.858 366.567 268.564V263.667ZM373.763 265.898C373.733 265.593 373.603 265.355 373.373 265.185C373.144 265.017 372.832 264.932 372.438 264.932C372.17 264.932 371.945 264.97 371.76 265.046C371.576 265.119 371.435 265.221 371.336 265.352C371.24 265.484 371.192 265.632 371.192 265.799C371.186 265.938 371.216 266.059 371.28 266.163C371.345 266.266 371.435 266.355 371.548 266.432C371.661 266.505 371.792 266.569 371.942 266.625C372.091 266.677 372.25 266.723 372.419 266.761L373.116 266.927C373.454 267.003 373.764 267.105 374.047 267.231C374.33 267.357 374.574 267.512 374.782 267.696C374.988 267.88 375.149 268.097 375.263 268.348C375.379 268.598 375.438 268.885 375.44 269.207C375.438 269.681 375.317 270.093 375.077 270.441C374.84 270.787 374.497 271.056 374.047 271.248C373.6 271.438 373.061 271.532 372.43 271.532C371.804 271.532 371.259 271.436 370.795 271.244C370.332 271.052 369.972 270.769 369.711 270.392C369.454 270.014 369.319 269.546 369.306 268.987H370.893C370.91 269.248 370.985 269.464 371.117 269.639C371.25 269.81 371.428 269.94 371.65 270.028C371.875 270.115 372.129 270.157 372.411 270.157C372.689 270.157 372.93 270.118 373.135 270.036C373.341 269.956 373.501 269.843 373.616 269.7C373.729 269.555 373.785 269.391 373.785 269.203C373.785 269.029 373.734 268.883 373.63 268.764C373.529 268.645 373.38 268.544 373.183 268.461C372.99 268.378 372.751 268.302 372.468 268.234L371.624 268.022C370.97 267.863 370.454 267.615 370.075 267.276C369.697 266.938 369.509 266.482 369.51 265.909C369.509 265.439 369.634 265.029 369.886 264.678C370.141 264.328 370.491 264.053 370.934 263.856C371.378 263.66 371.883 263.562 372.45 263.562C373.024 263.562 373.527 263.66 373.956 263.856C374.388 264.053 374.724 264.328 374.963 264.678C375.204 265.029 375.327 265.436 375.334 265.898H373.763ZM376.543 271.422V263.667H378.183V266.867H381.511V263.667H383.148V271.422H381.511V268.219H378.183V271.422H376.543ZM391.626 267.545C391.626 268.39 391.465 269.11 391.145 269.704C390.827 270.297 390.393 270.75 389.842 271.063C389.294 271.373 388.678 271.528 387.994 271.528C387.305 271.528 386.687 271.372 386.139 271.059C385.591 270.746 385.158 270.293 384.84 269.7C384.522 269.107 384.363 268.388 384.363 267.545C384.363 266.7 384.522 265.979 384.84 265.386C385.158 264.793 385.591 264.341 386.139 264.031C386.687 263.718 387.305 263.562 387.994 263.562C388.678 263.562 389.294 263.718 389.842 264.031C390.393 264.341 390.827 264.793 391.145 265.386C391.465 265.979 391.626 266.7 391.626 267.545ZM389.963 267.545C389.963 266.997 389.881 266.535 389.717 266.159C389.555 265.783 389.327 265.498 389.032 265.304C388.736 265.109 388.391 265.012 387.994 265.012C387.598 265.012 387.252 265.109 386.956 265.304C386.661 265.498 386.432 265.783 386.267 266.159C386.106 266.535 386.025 266.997 386.025 267.545C386.025 268.093 386.106 268.555 386.267 268.931C386.432 269.307 386.661 269.592 386.956 269.786C387.252 269.981 387.598 270.078 387.994 270.078C388.391 270.078 388.736 269.981 389.032 269.786C389.327 269.592 389.555 269.307 389.717 268.931C389.881 268.555 389.963 268.093 389.963 267.545ZM399.326 263.667V271.422H397.91L394.537 266.542H394.479V271.422H392.84V263.667H394.279L397.626 268.544H397.695V263.667H399.326ZM405.823 266.174C405.771 265.99 405.696 265.827 405.6 265.686C405.504 265.542 405.387 265.421 405.248 265.322C405.111 265.221 404.954 265.144 404.778 265.091C404.603 265.038 404.411 265.012 404.198 265.012C403.803 265.012 403.454 265.11 403.153 265.307C402.856 265.504 402.623 265.79 402.457 266.166C402.291 266.541 402.207 266.997 402.207 267.537C402.207 268.077 402.289 268.537 402.453 268.916C402.617 269.295 402.85 269.583 403.149 269.783C403.45 269.98 403.805 270.078 404.214 270.078C404.585 270.078 404.902 270.013 405.165 269.881C405.429 269.747 405.631 269.559 405.771 269.317C405.911 269.075 405.982 268.789 405.982 268.457L406.315 268.507H404.316V267.273H407.561V268.25C407.561 268.931 407.417 269.517 407.13 270.006C406.842 270.494 406.445 270.87 405.94 271.134C405.436 271.397 404.857 271.528 404.206 271.528C403.479 271.528 402.84 271.368 402.291 271.047C401.74 270.724 401.31 270.266 401.003 269.673C400.697 269.077 400.545 268.371 400.545 267.553C400.545 266.924 400.636 266.363 400.817 265.871C401.001 265.376 401.259 264.958 401.59 264.614C401.92 264.27 402.305 264.01 402.744 263.83C403.184 263.651 403.659 263.562 404.172 263.562C404.611 263.562 405.02 263.626 405.399 263.755C405.777 263.881 406.114 264.06 406.406 264.293C406.702 264.524 406.943 264.801 407.13 265.121C407.317 265.439 407.436 265.79 407.489 266.174H405.823ZM415.919 267.545C415.919 268.39 415.759 269.11 415.438 269.704C415.12 270.297 414.686 270.75 414.135 271.063C413.587 271.373 412.972 271.528 412.288 271.528C411.598 271.528 410.98 271.372 410.432 271.059C409.885 270.746 409.451 270.293 409.133 269.7C408.815 269.107 408.656 268.388 408.656 267.545C408.656 266.7 408.815 265.979 409.133 265.386C409.451 264.793 409.885 264.341 410.432 264.031C410.98 263.718 411.598 263.562 412.288 263.562C412.972 263.562 413.587 263.718 414.135 264.031C414.686 264.341 415.12 264.793 415.438 265.386C415.759 265.979 415.919 266.7 415.919 267.545ZM414.256 267.545C414.256 266.997 414.175 266.535 414.011 266.159C413.849 265.783 413.62 265.498 413.326 265.304C413.03 265.109 412.684 265.012 412.288 265.012C411.891 265.012 411.546 265.109 411.25 265.304C410.955 265.498 410.725 265.783 410.561 266.159C410.399 266.535 410.319 266.997 410.319 267.545C410.319 268.093 410.399 268.555 410.561 268.931C410.725 269.307 410.955 269.592 411.25 269.786C411.546 269.981 411.891 270.078 412.288 270.078C412.684 270.078 413.03 269.981 413.326 269.786C413.62 269.592 413.849 269.307 414.011 268.931C414.175 268.555 414.256 268.093 414.256 267.545Z" fill="#AFA2A2"/>
<path d="M316.512 193.472C316.46 193.288 316.385 193.125 316.289 192.983C316.193 192.84 316.076 192.719 315.937 192.62C315.801 192.519 315.645 192.441 315.467 192.389C315.294 192.336 315.1 192.309 314.889 192.309C314.492 192.309 314.143 192.407 313.844 192.604C313.545 192.802 313.313 193.088 313.147 193.464C312.98 193.838 312.897 194.295 312.897 194.835C312.897 195.375 312.979 195.834 313.143 196.213C313.307 196.592 313.539 196.881 313.84 197.081C314.14 197.277 314.494 197.375 314.903 197.375C315.274 197.375 315.591 197.31 315.854 197.179C316.119 197.045 316.321 196.857 316.46 196.614C316.601 196.372 316.672 196.086 316.672 195.755L317.005 195.804H315.006V194.57H318.25V195.547C318.25 196.229 318.107 196.814 317.819 197.304C317.531 197.791 317.135 198.167 316.631 198.432C316.126 198.695 315.547 198.826 314.895 198.826C314.168 198.826 313.531 198.666 312.98 198.345C312.429 198.022 312 197.563 311.693 196.97C311.387 196.375 311.234 195.668 311.234 194.85C311.234 194.221 311.325 193.661 311.507 193.168C311.691 192.674 311.949 192.255 312.279 191.912C312.61 191.568 312.995 191.307 313.435 191.128C313.874 190.948 314.35 190.859 314.862 190.859C315.301 190.859 315.71 190.923 316.089 191.052C316.468 191.178 316.803 191.358 317.096 191.59C317.392 191.822 317.632 192.098 317.819 192.419C318.006 192.737 318.126 193.088 318.179 193.472H316.512ZM319.482 198.72V190.965H322.587C323.158 190.965 323.633 191.049 324.015 191.219C324.396 191.388 324.683 191.622 324.874 191.923C325.066 192.221 325.162 192.564 325.162 192.953C325.162 193.256 325.102 193.522 324.981 193.752C324.86 193.979 324.693 194.166 324.48 194.312C324.271 194.457 324.032 194.558 323.761 194.619V194.695C324.057 194.708 324.333 194.791 324.59 194.944C324.851 195.098 325.061 195.315 325.223 195.592C325.384 195.867 325.465 196.196 325.465 196.577C325.465 196.989 325.363 197.355 325.158 197.679C324.956 198 324.657 198.253 324.261 198.44C323.865 198.627 323.376 198.72 322.796 198.72H319.482ZM321.122 197.379H322.458C322.916 197.379 323.248 197.292 323.458 197.119C323.668 196.941 323.773 196.707 323.773 196.414C323.773 196.2 323.721 196.01 323.618 195.846C323.514 195.682 323.366 195.553 323.175 195.46C322.985 195.366 322.759 195.319 322.496 195.319H321.122V197.379ZM321.122 194.21H322.337C322.562 194.21 322.762 194.171 322.935 194.093C323.113 194.012 323.251 193.898 323.352 193.752C323.456 193.606 323.507 193.43 323.507 193.226C323.507 192.945 323.407 192.72 323.209 192.548C323.012 192.376 322.731 192.29 322.367 192.29H321.122V194.21ZM333.658 194.842C333.658 195.688 333.499 196.408 333.178 197.001C332.86 197.594 332.425 198.047 331.875 198.36C331.327 198.67 330.712 198.826 330.027 198.826C329.338 198.826 328.72 198.669 328.172 198.356C327.624 198.043 327.191 197.591 326.873 196.997C326.555 196.404 326.396 195.686 326.396 194.842C326.396 193.997 326.555 193.277 326.873 192.684C327.191 192.09 327.624 191.639 328.172 191.328C328.72 191.015 329.338 190.859 330.027 190.859C330.712 190.859 331.327 191.015 331.875 191.328C332.425 191.639 332.86 192.09 333.178 192.684C333.499 193.277 333.658 193.997 333.658 194.842ZM331.996 194.842C331.996 194.295 331.914 193.832 331.75 193.456C331.589 193.08 331.36 192.795 331.064 192.601C330.769 192.406 330.424 192.309 330.027 192.309C329.631 192.309 329.285 192.406 328.99 192.601C328.694 192.795 328.465 193.08 328.301 193.456C328.139 193.832 328.058 194.295 328.058 194.842C328.058 195.39 328.139 195.853 328.301 196.229C328.465 196.605 328.694 196.89 328.99 197.084C329.285 197.278 329.631 197.375 330.027 197.375C330.424 197.375 330.769 197.278 331.064 197.084C331.36 196.89 331.589 196.605 331.75 196.229C331.914 195.853 331.996 195.39 331.996 194.842ZM334.873 198.72V190.965H336.512V194.384H336.615L339.406 190.965H341.371L338.493 194.437L341.405 198.72H339.444L337.319 195.532L336.512 196.517V198.72H334.873ZM348.913 194.842C348.913 195.688 348.753 196.408 348.433 197.001C348.115 197.594 347.68 198.047 347.13 198.36C346.582 198.67 345.966 198.826 345.282 198.826C344.593 198.826 343.974 198.669 343.427 198.356C342.879 198.043 342.446 197.591 342.128 196.997C341.81 196.404 341.651 195.686 341.651 194.842C341.651 193.997 341.81 193.277 342.128 192.684C342.446 192.09 342.879 191.639 343.427 191.328C343.974 191.015 344.593 190.859 345.282 190.859C345.966 190.859 346.582 191.015 347.13 191.328C347.68 191.639 348.115 192.09 348.433 192.684C348.753 193.277 348.913 193.997 348.913 194.842ZM347.251 194.842C347.251 194.295 347.169 193.832 347.005 193.456C346.844 193.08 346.615 192.795 346.319 192.601C346.025 192.406 345.679 192.309 345.282 192.309C344.886 192.309 344.541 192.406 344.245 192.601C343.949 192.795 343.719 193.08 343.556 193.456C343.394 193.832 343.313 194.295 343.313 194.842C343.313 195.39 343.394 195.853 343.556 196.229C343.719 196.605 343.949 196.89 344.245 197.084C344.541 197.278 344.886 197.375 345.282 197.375C345.679 197.375 346.025 197.278 346.319 197.084C346.615 196.89 346.844 196.605 347.005 196.229C347.169 195.853 347.251 195.39 347.251 194.842Z" fill="#AFA2A2"/>
<path d="M309.727 65.5154C309.675 65.3312 309.6 65.1684 309.504 65.027C309.408 64.8831 309.291 64.762 309.152 64.6635C309.015 64.5626 308.859 64.4855 308.682 64.4326C308.508 64.3795 308.315 64.353 308.103 64.353C307.707 64.353 307.358 64.4515 307.058 64.6483C306.76 64.8452 306.528 65.1318 306.361 65.5079C306.195 65.8815 306.111 66.3384 306.111 66.8787C306.111 67.4189 306.194 67.8783 306.357 68.257C306.521 68.6356 306.754 68.9247 307.054 69.1241C307.355 69.321 307.709 69.4195 308.118 69.4195C308.489 69.4195 308.806 69.3538 309.069 69.2226C309.333 69.0887 309.536 68.9007 309.675 68.6583C309.816 68.416 309.887 68.1295 309.887 67.7988L310.219 67.848H308.221V66.6135H311.465V67.5906C311.465 68.2721 311.322 68.8578 311.034 69.3475C310.746 69.8347 310.349 70.2109 309.845 70.4759C309.34 70.7385 308.761 70.8697 308.11 70.8697C307.383 70.8697 306.745 70.7094 306.195 70.3888C305.644 70.0656 305.215 69.6075 304.907 69.0143C304.602 68.4185 304.449 67.7117 304.449 66.8938C304.449 66.2652 304.54 65.7048 304.721 65.2125C304.905 64.7177 305.163 64.2987 305.494 63.9554C305.824 63.6121 306.21 63.3508 306.649 63.1716C307.088 62.9924 307.564 62.9027 308.076 62.9027C308.515 62.9027 308.924 62.9671 309.303 63.0958C309.682 63.2221 310.018 63.4013 310.31 63.6335C310.606 63.8658 310.847 64.1422 311.034 64.4628C311.221 64.7809 311.341 65.1318 311.393 65.5154H309.727ZM317.487 63.0088H319.127V68.0449C319.127 68.6103 318.991 69.1052 318.722 69.5293C318.454 69.9534 318.079 70.284 317.597 70.5213C317.114 70.7561 316.553 70.8735 315.911 70.8735C315.268 70.8735 314.706 70.7561 314.223 70.5213C313.741 70.284 313.366 69.9534 313.098 69.5293C312.831 69.1052 312.697 68.6103 312.697 68.0449V63.0088H314.336V67.9048C314.336 68.2002 314.401 68.4627 314.53 68.6924C314.661 68.9222 314.845 69.1027 315.083 69.2339C315.32 69.3652 315.596 69.4308 315.911 69.4308C316.229 69.4308 316.507 69.3652 316.741 69.2339C316.979 69.1027 317.161 68.9222 317.29 68.6924C317.422 68.4627 317.487 68.2002 317.487 67.9048V63.0088ZM320.475 63.0088H322.497L324.633 68.2191H324.724L326.859 63.0088H328.882V70.7637H327.292V65.7162H327.227L325.22 70.7258H324.138L322.13 65.6972H322.066V70.7637H320.475V63.0088ZM331.57 70.7637H329.812L332.49 63.0088H334.603L337.275 70.7637H335.519L333.576 64.7809H333.515L331.57 70.7637ZM331.459 67.7155H335.61V68.9954H331.459V67.7155Z" fill="#AFA2A2"/>
<path d="M466.469 221.015V213.26H468.108V216.679H468.211L471.002 213.26H472.967L470.089 216.733L473.001 221.015H471.04L468.915 217.827L468.108 218.812V221.015H466.469ZM475.158 221.015H473.4L476.078 213.26H478.191L480.863 221.015H479.107L477.164 215.032H477.103L475.158 221.015ZM475.047 217.967H479.198V219.247H475.047V217.967ZM480.554 214.613V213.26H486.923V214.613H484.549V221.015H482.928V214.613H480.554ZM492.179 215.491C492.149 215.185 492.019 214.948 491.789 214.778C491.559 214.61 491.247 214.525 490.854 214.525C490.586 214.525 490.36 214.563 490.176 214.639C489.992 214.711 489.85 214.814 489.751 214.945C489.655 215.077 489.608 215.225 489.608 215.392C489.603 215.531 489.632 215.652 489.695 215.755C489.76 215.859 489.85 215.948 489.964 216.025C490.077 216.098 490.209 216.162 490.357 216.218C490.507 216.27 490.666 216.316 490.834 216.354L491.531 216.52C491.87 216.596 492.181 216.698 492.463 216.824C492.746 216.95 492.99 217.105 493.198 217.289C493.405 217.473 493.565 217.69 493.678 217.94C493.795 218.191 493.854 218.477 493.857 218.8C493.854 219.274 493.733 219.686 493.493 220.034C493.256 220.38 492.913 220.649 492.463 220.841C492.016 221.031 491.477 221.125 490.846 221.125C490.22 221.125 489.675 221.029 489.211 220.837C488.748 220.645 488.388 220.362 488.128 219.985C487.87 219.607 487.735 219.139 487.723 218.58H489.308C489.327 218.841 489.401 219.057 489.532 219.232C489.666 219.403 489.844 219.533 490.066 219.621C490.29 219.708 490.544 219.75 490.827 219.75C491.105 219.75 491.346 219.71 491.551 219.629C491.757 219.549 491.918 219.436 492.031 219.293C492.145 219.148 492.202 218.983 492.202 218.796C492.202 218.622 492.15 218.475 492.046 218.357C491.945 218.238 491.797 218.137 491.6 218.054C491.405 217.97 491.167 217.895 490.884 217.827L490.039 217.615C489.386 217.456 488.869 217.208 488.491 216.869C488.112 216.531 487.924 216.075 487.926 215.501C487.924 215.032 488.049 214.622 488.301 214.271C488.556 213.92 488.906 213.646 489.35 213.449C489.795 213.253 490.299 213.155 490.865 213.155C491.44 213.155 491.943 213.253 492.372 213.449C492.804 213.646 493.139 213.92 493.379 214.271C493.619 214.622 493.742 215.028 493.75 215.491H492.179ZM496.599 213.26V221.015H494.959V213.26H496.599ZM504.434 213.26V221.015H503.018L499.644 216.134H499.588V221.015H497.947V213.26H499.387L502.734 218.137H502.802V213.26H504.434ZM507.125 221.015H505.369L508.045 213.26H510.159L512.832 221.015H511.075L509.132 215.032H509.072L507.125 221.015ZM507.016 217.967H511.166V219.247H507.016V217.967ZM517.359 216.498V217.778H513.822V216.498H517.359ZM520.1 221.015H518.343L521.02 213.26H523.134L525.807 221.015H524.05L522.107 215.032H522.047L520.1 221.015ZM519.991 217.967H524.141V219.247H519.991V217.967ZM526.741 221.015V213.26H528.38V219.663H531.705V221.015H526.741ZM534.325 221.015H532.567L535.245 213.26H537.358L540.03 221.015H538.274L536.331 215.032H536.271L534.325 221.015ZM534.214 217.967H538.365V219.247H534.214V217.967Z" fill="#AFA2A2"/>
<path d="M440.296 335.4V327.646H441.936V331.064H442.038L444.829 327.646H446.794L443.916 331.118L446.828 335.4H444.867L442.742 332.212L441.936 333.197V335.4H440.296ZM449.394 335.4L447.174 327.646H448.965L450.249 333.034H450.314L451.73 327.646H453.264L454.676 333.045H454.744L456.027 327.646H457.819L455.6 335.4H454.001L452.525 330.331H452.464L450.991 335.4H449.394ZM459.251 335.4H457.495L460.172 327.646H462.285L464.958 335.4H463.202L461.259 329.418H461.198L459.251 335.4ZM459.142 332.352H463.292V333.632H459.142V332.352ZM472.378 327.646V335.4H470.962L467.588 330.52H467.531V335.4H465.892V327.646H467.33L470.678 332.522H470.746V327.646H472.378ZM476.482 335.4H473.733V327.646H476.504C477.284 327.646 477.956 327.801 478.518 328.111C479.082 328.419 479.515 328.862 479.817 329.441C480.123 330.019 480.276 330.71 480.276 331.515C480.276 332.324 480.123 333.018 479.817 333.598C479.515 334.179 479.08 334.624 478.512 334.935C477.946 335.245 477.269 335.4 476.482 335.4ZM475.372 333.996H476.414C476.899 333.996 477.306 333.91 477.636 333.738C477.97 333.563 478.22 333.295 478.387 332.931C478.555 332.566 478.64 332.094 478.64 331.515C478.64 330.942 478.555 330.474 478.387 330.111C478.22 329.747 477.971 329.48 477.64 329.308C477.31 329.136 476.902 329.05 476.417 329.05H475.372V333.996ZM481.491 335.4V327.646H486.715V328.998H483.13V330.845H486.447V332.197H483.13V334.048H486.731V335.4H481.491Z" fill="#AFA2A2"/>
<path d="M483.861 120.201H485.501V125.237C485.501 125.803 485.365 126.298 485.096 126.722C484.828 127.146 484.453 127.476 483.97 127.714C483.488 127.948 482.927 128.066 482.285 128.066C481.642 128.066 481.079 127.948 480.597 127.714C480.115 127.476 479.74 127.146 479.472 126.722C479.205 126.298 479.071 125.803 479.071 125.237V120.201H480.71V125.097C480.71 125.392 480.775 125.655 480.903 125.885C481.035 126.114 481.219 126.295 481.457 126.426C481.693 126.557 481.97 126.623 482.285 126.623C482.603 126.623 482.88 126.557 483.115 126.426C483.352 126.295 483.535 126.114 483.664 125.885C483.795 125.655 483.861 125.392 483.861 125.097V120.201ZM486.849 127.956V120.201H488.489V123.62H488.591L491.382 120.201H493.347L490.47 123.674L493.381 127.956H491.42L489.296 124.768L488.489 125.753V127.956H486.849ZM498.991 120.201H500.631V125.237C500.631 125.803 500.496 126.298 500.226 126.722C499.958 127.146 499.583 127.476 499.101 127.714C498.618 127.948 498.057 128.066 497.416 128.066C496.772 128.066 496.209 127.948 495.727 127.714C495.245 127.476 494.87 127.146 494.602 126.722C494.335 126.298 494.201 125.803 494.201 125.237V120.201H495.841V125.097C495.841 125.392 495.905 125.655 496.034 125.885C496.165 126.114 496.349 126.295 496.587 126.426C496.824 126.557 497.1 126.623 497.416 126.623C497.734 126.623 498.011 126.557 498.245 126.426C498.483 126.295 498.666 126.114 498.794 125.885C498.926 125.655 498.991 125.392 498.991 125.097V120.201ZM501.98 120.201H504.002L506.138 125.412H506.228L508.364 120.201H510.385V127.956H508.796V122.909H508.731L506.724 127.918H505.641L503.635 122.889H503.57V127.956H501.98V120.201Z" fill="#AFA2A2"/>
<path d="M397.644 127.956V120.201H399.283V126.604H402.608V127.956H397.644ZM410.518 124.079C410.518 124.924 410.358 125.644 410.038 126.238C409.72 126.831 409.285 127.284 408.735 127.597C408.187 127.907 407.572 128.062 406.887 128.062C406.198 128.062 405.58 127.906 405.032 127.593C404.484 127.28 404.051 126.827 403.733 126.234C403.415 125.64 403.256 124.922 403.256 124.079C403.256 123.234 403.415 122.513 403.733 121.92C404.051 121.327 404.484 120.875 405.032 120.565C405.58 120.252 406.198 120.096 406.887 120.096C407.572 120.096 408.187 120.252 408.735 120.565C409.285 120.875 409.72 121.327 410.038 121.92C410.358 122.513 410.518 123.234 410.518 124.079ZM408.856 124.079C408.856 123.531 408.775 123.069 408.61 122.693C408.449 122.317 408.22 122.032 407.924 121.838C407.63 121.643 407.284 121.546 406.887 121.546C406.491 121.546 406.145 121.643 405.85 121.838C405.554 122.032 405.325 122.317 405.161 122.693C404.999 123.069 404.918 123.531 404.918 124.079C404.918 124.627 404.999 125.089 405.161 125.465C405.325 125.841 405.554 126.126 405.85 126.32C406.145 126.515 406.491 126.612 406.887 126.612C407.284 126.612 407.63 126.515 407.924 126.32C408.22 126.126 408.449 125.841 408.61 125.465C408.775 125.089 408.856 124.627 408.856 124.079ZM416.876 122.708C416.822 122.524 416.748 122.361 416.652 122.22C416.556 122.076 416.438 121.955 416.3 121.856C416.163 121.755 416.007 121.678 415.83 121.625C415.656 121.572 415.463 121.546 415.251 121.546C414.854 121.546 414.506 121.644 414.206 121.841C413.907 122.038 413.676 122.324 413.509 122.7C413.342 123.075 413.259 123.531 413.259 124.071C413.259 124.611 413.341 125.07 413.505 125.45C413.669 125.829 413.902 126.117 414.202 126.317C414.503 126.514 414.857 126.612 415.265 126.612C415.637 126.612 415.954 126.547 416.216 126.415C416.481 126.281 416.684 126.093 416.822 125.851C416.964 125.608 417.034 125.323 417.034 124.991L417.367 125.04H415.368V123.806H418.614V124.784C418.614 125.465 418.469 126.051 418.181 126.54C417.893 127.028 417.498 127.404 416.993 127.668C416.488 127.931 415.91 128.062 415.259 128.062C414.532 128.062 413.893 127.902 413.342 127.581C412.792 127.258 412.363 126.8 412.055 126.207C411.75 125.611 411.596 124.905 411.596 124.087C411.596 123.457 411.687 122.897 411.87 122.405C412.054 121.91 412.311 121.492 412.641 121.148C412.973 120.804 413.358 120.544 413.797 120.364C414.236 120.185 414.712 120.096 415.224 120.096C415.664 120.096 416.072 120.16 416.451 120.289C416.83 120.415 417.165 120.594 417.458 120.827C417.754 121.058 417.995 121.335 418.181 121.655C418.368 121.973 418.489 122.324 418.541 122.708H416.876ZM426.971 124.079C426.971 124.924 426.811 125.644 426.491 126.238C426.172 126.831 425.738 127.284 425.188 127.597C424.64 127.907 424.024 128.062 423.34 128.062C422.651 128.062 422.033 127.906 421.485 127.593C420.936 127.28 420.504 126.827 420.186 126.234C419.868 125.64 419.708 124.922 419.708 124.079C419.708 123.234 419.868 122.513 420.186 121.92C420.504 121.327 420.936 120.875 421.485 120.565C422.033 120.252 422.651 120.096 423.34 120.096C424.024 120.096 424.64 120.252 425.188 120.565C425.738 120.875 426.172 121.327 426.491 121.92C426.811 122.513 426.971 123.234 426.971 124.079ZM425.309 124.079C425.309 123.531 425.227 123.069 425.063 122.693C424.901 122.317 424.673 122.032 424.377 121.838C424.082 121.643 423.736 121.546 423.34 121.546C422.944 121.546 422.598 121.643 422.302 121.838C422.007 122.032 421.778 122.317 421.613 122.693C421.452 123.069 421.37 123.531 421.37 124.079C421.37 124.627 421.452 125.089 421.613 125.465C421.778 125.841 422.007 126.126 422.302 126.32C422.598 126.515 422.944 126.612 423.34 126.612C423.736 126.612 424.082 126.515 424.377 126.32C424.673 126.126 424.901 125.841 425.063 125.465C425.227 125.089 425.309 124.627 425.309 124.079Z" fill="#AFA2A2"/>
<path d="M312.058 154.764L310.718 154.582L311.577 148.271L312.917 148.453L312.596 150.806L318.941 151.67L318.722 153.275L312.378 152.412L312.058 154.764ZM319.455 147.892L319.218 149.633L311.895 145.935L312.18 143.841L320.225 142.238L319.987 143.979L313.798 145.097L313.789 145.157L319.455 147.892ZM316.42 147.59L316.979 143.478L318.247 143.65L317.688 147.762L316.42 147.59ZM320.351 141.313L312.667 140.267L313.079 137.236C313.158 136.655 313.329 136.174 313.592 135.793C313.854 135.408 314.188 135.133 314.595 134.97C315 134.803 315.457 134.754 315.964 134.823C316.474 134.893 316.898 135.063 317.236 135.333C317.571 135.603 317.808 135.959 317.946 136.404C318.084 136.845 318.114 137.362 318.033 137.952L317.757 139.982L316.451 139.804L316.692 138.037C316.734 137.726 316.726 137.464 316.669 137.247C316.613 137.03 316.505 136.86 316.349 136.737C316.193 136.612 315.989 136.531 315.736 136.496C315.481 136.462 315.259 136.484 315.07 136.563C314.881 136.639 314.728 136.775 314.609 136.97C314.489 137.162 314.408 137.415 314.365 137.728L314.216 138.824L320.572 139.688L320.351 141.313ZM317.419 136.687L321.175 135.254L320.932 137.047L317.18 138.44L317.419 136.687ZM321.294 134.379L313.61 133.333L313.831 131.709L317.219 132.17L317.233 132.069L314.222 128.842L314.486 126.896L317.539 130.215L322.175 127.908L321.911 129.85L318.464 131.525L319.331 132.458L321.515 132.755L321.294 134.379ZM322.466 125.77L322.228 127.511L314.906 123.813L315.191 121.719L323.236 120.116L322.998 121.857L316.808 122.976L316.8 123.035L322.466 125.77ZM319.431 125.468L319.99 121.356L321.258 121.528L320.699 125.64L319.431 125.468Z" fill="#AFA2A2"/>
<path d="M365.234 355.695L371.325 354.633L371.335 354.562L365.75 351.906L365.995 350.105L373.319 353.8L373.034 355.893L364.988 357.5L365.234 355.695ZM373.846 349.923L373.609 351.664L366.286 347.965L366.571 345.872L374.616 344.268L374.379 346.009L368.189 347.128L368.18 347.188L373.846 349.923ZM370.811 349.621L371.371 345.508L372.639 345.682L372.079 349.794L370.811 349.621ZM367.932 335.871L375.616 336.917L375.425 338.32L370.134 341.004L370.127 341.061L374.963 341.719L374.742 343.344L367.058 342.299L367.252 340.873L372.536 338.214L372.544 338.146L367.712 337.488L367.932 335.871ZM376.17 332.85L375.799 335.574L368.115 334.529L368.489 331.782C368.594 331.009 368.839 330.365 369.222 329.849C369.603 329.332 370.101 328.963 370.714 328.741C371.328 328.516 372.034 328.459 372.832 328.567C373.632 328.676 374.3 328.921 374.834 329.302C375.368 329.68 375.751 330.172 375.982 330.777C376.214 331.379 376.276 332.07 376.17 332.85ZM374.629 333.76L374.768 332.729C374.834 332.248 374.804 331.833 374.678 331.482C374.551 331.129 374.318 330.845 373.98 330.63C373.641 330.413 373.184 330.266 372.611 330.188C372.043 330.111 371.568 330.131 371.185 330.25C370.803 330.366 370.504 330.576 370.289 330.88C370.075 331.186 369.934 331.577 369.869 332.058L369.728 333.093L374.629 333.76ZM376.846 327.888L369.161 326.842L369.866 321.664L371.206 321.846L370.722 325.4L372.552 325.649L373 322.362L374.34 322.544L373.892 325.831L375.727 326.081L376.213 322.513L377.552 322.695L376.846 327.888ZM370.263 318.748L377.947 319.794L377.726 321.418L370.042 320.372L370.263 318.748ZM378.129 318.457L370.445 317.411L370.666 315.786L374.054 316.248L374.067 316.146L371.056 312.92L371.321 310.973L374.374 314.293L379.009 311.985L378.746 313.928L375.299 315.603L376.166 316.535L378.35 316.832L378.129 318.457ZM371.374 310.577L371.623 308.758L375.17 307.456L375.18 307.38L372.109 305.178L372.357 303.358L376.943 306.837L379.66 307.207L379.441 308.82L376.723 308.45L371.374 310.577ZM380.235 302.976L379.999 304.717L372.675 301.019L372.96 298.925L381.005 297.322L380.769 299.063L374.578 300.181L374.57 300.241L380.235 302.976ZM377.2 302.674L377.761 298.562L379.029 298.734L378.468 302.846L377.2 302.674Z" fill="#AFA2A2"/>
<path d="M408.93 234.787L401.415 232.872L402.182 229.863C402.324 229.31 402.522 228.87 402.781 228.542C403.039 228.215 403.338 227.995 403.676 227.883C404.011 227.771 404.368 227.763 404.745 227.859C405.038 227.934 405.281 228.059 405.474 228.232C405.664 228.406 405.805 228.613 405.894 228.856C405.981 229.094 406.021 229.351 406.013 229.628L406.087 229.647C406.172 229.363 406.32 229.116 406.534 228.905C406.747 228.691 407.009 228.54 407.317 228.452C407.624 228.363 407.961 228.366 408.331 228.46C408.73 228.562 409.061 228.752 409.323 229.03C409.584 229.304 409.756 229.657 409.839 230.088C409.922 230.518 409.891 231.014 409.749 231.577L408.93 234.787ZM408.036 232.868L408.367 231.572C408.479 231.13 408.477 230.785 408.36 230.539C408.241 230.292 408.039 230.133 407.755 230.06C407.547 230.007 407.351 230.011 407.167 230.07C406.981 230.13 406.82 230.242 406.683 230.405C406.545 230.564 406.444 230.772 406.379 231.027L406.04 232.359L408.036 232.868ZM404.965 232.084L405.266 230.907C405.321 230.689 405.332 230.486 405.3 230.298C405.265 230.107 405.189 229.944 405.072 229.81C404.955 229.674 404.798 229.581 404.601 229.53C404.328 229.46 404.085 229.501 403.87 229.652C403.655 229.801 403.502 230.051 403.412 230.404L403.105 231.61L404.965 232.084ZM404.34 221.399L404.745 219.81L409.625 221.054C410.173 221.194 410.618 221.447 410.964 221.813C411.308 222.178 411.535 222.622 411.647 223.148C411.755 223.673 411.73 224.246 411.571 224.868C411.412 225.492 411.16 226.008 410.813 226.418C410.464 226.826 410.051 227.108 409.574 227.262C409.097 227.417 408.585 227.424 408.037 227.284L403.156 226.04L403.561 224.452L408.306 225.661C408.592 225.734 408.863 225.736 409.117 225.668C409.372 225.597 409.592 225.464 409.778 225.266C409.964 225.069 410.096 224.817 410.173 224.512C410.252 224.204 410.257 223.919 410.188 223.66C410.119 223.397 409.989 223.175 409.798 222.994C409.608 222.81 409.37 222.681 409.084 222.608L404.34 221.399ZM412.592 220.418L405.078 218.503L405.483 216.914L408.796 217.758L408.821 217.659L406.197 214.11L406.683 212.207L409.337 215.852L414.206 214.089L413.721 215.989L410.108 217.261L410.862 218.286L412.997 218.829L412.592 220.418ZM408.077 206.737L408.482 205.149L413.362 206.392C413.909 206.532 414.355 206.785 414.7 207.151C415.045 207.516 415.272 207.961 415.384 208.486C415.492 209.012 415.467 209.585 415.308 210.206C415.149 210.83 414.897 211.347 414.55 211.756C414.201 212.164 413.788 212.446 413.311 212.6C412.834 212.755 412.322 212.762 411.774 212.623L406.893 211.379L407.298 209.79L412.042 211C412.329 211.072 412.6 211.074 412.854 211.007C413.109 210.937 413.329 210.802 413.515 210.605C413.701 210.408 413.833 210.155 413.91 209.85C413.989 209.542 413.994 209.258 413.925 208.998C413.856 208.735 413.726 208.513 413.535 208.332C413.345 208.148 413.107 208.02 412.821 207.946L408.077 206.737ZM416.329 205.756L408.814 203.841L409.571 200.877C409.715 200.31 409.94 199.851 410.245 199.501C410.549 199.148 410.912 198.915 411.335 198.798C411.756 198.679 412.215 198.682 412.711 198.809C413.211 198.936 413.613 199.153 413.917 199.46C414.22 199.767 414.413 200.149 414.501 200.605C414.588 201.06 414.558 201.576 414.411 202.153L413.905 204.139L412.628 203.813L413.069 202.085C413.146 201.781 413.169 201.518 413.137 201.297C413.104 201.075 413.018 200.894 412.876 200.754C412.736 200.611 412.542 200.508 412.294 200.445C412.045 200.382 411.821 200.378 411.625 200.436C411.429 200.489 411.261 200.607 411.121 200.788C410.979 200.965 410.869 201.206 410.792 201.513L410.519 202.584L416.734 204.168L416.329 205.756ZM413.944 200.827L417.84 199.831L417.392 201.584L413.507 202.54L413.944 200.827ZM411.726 192.419L412.131 190.83L417.011 192.074C417.559 192.213 418.005 192.466 418.349 192.833C418.694 193.197 418.922 193.642 419.033 194.168C419.141 194.693 419.117 195.267 418.958 195.888C418.799 196.512 418.546 197.028 418.2 197.437C417.851 197.846 417.438 198.128 416.961 198.282C416.484 198.437 415.971 198.445 415.424 198.304L410.543 197.06L410.948 195.472L415.692 196.681C415.979 196.754 416.248 196.757 416.503 196.688C416.758 196.618 416.978 196.484 417.165 196.287C417.351 196.089 417.483 195.837 417.56 195.532C417.639 195.223 417.643 194.939 417.575 194.68C417.506 194.417 417.376 194.195 417.185 194.014C416.995 193.829 416.756 193.701 416.47 193.628L411.726 192.419Z" fill="#AFA2A2"/>
<path d="M82.0897 140.558H80.2529L83.0517 132.45H85.2607L88.0555 140.558H86.2187L84.1879 134.304H84.1245L82.0897 140.558ZM81.9749 137.372H86.3137V138.709H81.9749V137.372ZM89.0313 140.558V132.45H92.2299C92.8449 132.45 93.3687 132.568 93.8016 132.803C94.2344 133.035 94.5642 133.358 94.7912 133.772C95.0208 134.184 95.1356 134.659 95.1356 135.198C95.1356 135.736 95.0195 136.211 94.7873 136.623C94.555 137.034 94.2185 137.355 93.7778 137.585C93.3397 137.815 92.8092 137.929 92.1864 137.929H90.1476V136.555H91.9093C92.2391 136.555 92.511 136.499 92.7248 136.386C92.9411 136.269 93.1022 136.11 93.2077 135.907C93.3159 135.7 93.3701 135.465 93.3701 135.198C93.3701 134.929 93.3159 134.694 93.2077 134.494C93.1022 134.29 92.9411 134.133 92.7248 134.023C92.5083 133.909 92.2339 133.852 91.9014 133.852H90.7454V140.558H89.0313ZM96.7102 140.558H94.8734L97.6723 132.45H99.8815L102.676 140.558H100.839L98.8084 134.304H98.7454L96.7102 140.558ZM96.5954 137.372H100.934V138.709H96.5954V137.372Z" fill="white"/>
<path d="M100.389 201.628C100.389 202.473 100.229 203.194 99.9085 203.787C99.5906 204.38 99.1563 204.833 98.6057 205.146C98.058 205.456 97.4425 205.611 96.7583 205.611C96.0692 205.611 95.4507 205.455 94.9029 205.142C94.3551 204.829 93.9221 204.376 93.6041 203.783C93.286 203.19 93.127 202.471 93.127 201.628C93.127 200.783 93.286 200.062 93.6041 199.469C93.9221 198.876 94.3551 198.424 94.9029 198.114C95.4507 197.801 96.0692 197.645 96.7583 197.645C97.4425 197.645 98.058 197.801 98.6057 198.114C99.1563 198.424 99.5906 198.876 99.9085 199.469C100.229 200.062 100.389 200.783 100.389 201.628ZM98.7269 201.628C98.7269 201.08 98.6455 200.618 98.4816 200.242C98.3197 199.866 98.091 199.581 97.7963 199.387C97.5006 199.192 97.1546 199.095 96.7583 199.095C96.362 199.095 96.0162 199.192 95.7208 199.387C95.4254 199.581 95.1957 199.866 95.0317 200.242C94.8701 200.618 94.7893 201.08 94.7893 201.628C94.7893 202.176 94.8701 202.638 95.0317 203.014C95.1957 203.39 95.4254 203.675 95.7208 203.869C96.0162 204.064 96.362 204.161 96.7583 204.161C97.1546 204.161 97.5006 204.064 97.7963 203.869C98.091 203.675 98.3197 203.39 98.4816 203.014C98.6455 202.638 98.7269 202.176 98.7269 201.628ZM100.954 199.103V197.751H107.324V199.103H104.949V205.505H103.329V199.103H100.954ZM113.163 197.751H114.802V202.786C114.802 203.353 114.667 203.847 114.398 204.271C114.129 204.695 113.755 205.026 113.272 205.263C112.79 205.498 112.229 205.615 111.587 205.615C110.944 205.615 110.381 205.498 109.899 205.263C109.416 205.026 109.042 204.695 108.774 204.271C108.507 203.847 108.373 203.353 108.373 202.786V197.751H110.012V202.647C110.012 202.941 110.076 203.204 110.205 203.434C110.337 203.664 110.521 203.844 110.759 203.976C110.995 204.107 111.272 204.173 111.587 204.173C111.905 204.173 112.182 204.107 112.417 203.976C112.654 203.844 112.837 203.664 112.966 203.434C113.097 203.204 113.163 202.941 113.163 202.647V197.751ZM116.151 205.505V197.751H117.79V201.169H117.893L120.684 197.751H122.649L119.771 201.223L122.683 205.505H120.722L118.598 202.317L117.79 203.302V205.505H116.151ZM123.503 205.505V197.751H126.562C127.151 197.751 127.652 197.863 128.066 198.088C128.48 198.31 128.796 198.619 129.013 199.016C129.232 199.409 129.342 199.864 129.342 200.378C129.342 200.893 129.231 201.348 129.009 201.741C128.787 202.135 128.465 202.442 128.043 202.661C127.624 202.881 127.117 202.991 126.521 202.991H124.571V201.677H126.256C126.571 201.677 126.832 201.623 127.036 201.515C127.243 201.403 127.397 201.251 127.498 201.056C127.601 200.859 127.653 200.633 127.653 200.378C127.653 200.121 127.601 199.897 127.498 199.705C127.397 199.51 127.243 199.36 127.036 199.254C126.829 199.145 126.566 199.091 126.248 199.091H125.142V205.505H123.503ZM137.533 201.628C137.533 202.473 137.373 203.194 137.053 203.787C136.734 204.38 136.3 204.833 135.75 205.146C135.202 205.456 134.586 205.611 133.902 205.611C133.213 205.611 132.595 205.455 132.047 205.142C131.498 204.829 131.066 204.376 130.748 203.783C130.43 203.19 130.271 202.471 130.271 201.628C130.271 200.783 130.43 200.062 130.748 199.469C131.066 198.876 131.498 198.424 132.047 198.114C132.595 197.801 133.213 197.645 133.902 197.645C134.586 197.645 135.202 197.801 135.75 198.114C136.3 198.424 136.734 198.876 137.053 199.469C137.373 200.062 137.533 200.783 137.533 201.628ZM135.871 201.628C135.871 201.08 135.789 200.618 135.625 200.242C135.463 199.866 135.235 199.581 134.939 199.387C134.644 199.192 134.298 199.095 133.902 199.095C133.506 199.095 133.16 199.192 132.864 199.387C132.569 199.581 132.34 199.866 132.175 200.242C132.014 200.618 131.932 201.08 131.932 201.628C131.932 202.176 132.014 202.638 132.175 203.014C132.34 203.39 132.569 203.675 132.864 203.869C133.16 204.064 133.506 204.161 133.902 204.161C134.298 204.161 134.644 204.064 134.939 203.869C135.235 203.675 135.463 203.39 135.625 203.014C135.789 202.638 135.871 202.176 135.871 201.628Z" fill="white"/>
<path d="M94.5735 242.341C94.5735 243.187 94.4132 243.907 94.0926 244.5C93.7745 245.093 93.3403 245.546 92.79 245.859C92.2422 246.169 91.6263 246.324 90.9421 246.324C90.253 246.324 89.6346 246.168 89.0868 245.855C88.539 245.542 88.106 245.089 87.7879 244.496C87.4699 243.903 87.3108 243.185 87.3108 242.341C87.3108 241.496 87.4699 240.776 87.7879 240.183C88.106 239.589 88.539 239.138 89.0868 238.827C89.6346 238.514 90.253 238.358 90.9421 238.358C91.6263 238.358 92.2422 238.514 92.79 238.827C93.3403 239.138 93.7745 239.589 94.0926 240.183C94.4132 240.776 94.5735 241.496 94.5735 242.341ZM92.9112 242.341C92.9112 241.794 92.8291 241.331 92.6651 240.955C92.5035 240.579 92.275 240.294 91.9796 240.1C91.6843 239.905 91.3385 239.808 90.9421 239.808C90.5459 239.808 90.2 239.905 89.9046 240.1C89.6093 240.294 89.3795 240.579 89.2155 240.955C89.0539 241.331 88.9732 241.794 88.9732 242.341C88.9732 242.889 89.0539 243.351 89.2155 243.728C89.3795 244.104 89.6093 244.389 89.9046 244.583C90.2 244.777 90.5459 244.874 90.9421 244.874C91.3385 244.874 91.6843 244.777 91.9796 244.583C92.275 244.389 92.5035 244.104 92.6651 243.728C92.8291 243.351 92.9112 242.889 92.9112 242.341ZM95.788 246.219V238.464H97.428V241.664H100.756V238.464H102.392V246.219H100.756V243.015H97.428V246.219H95.788ZM105.384 238.464V246.219H103.743V238.464H105.384ZM106.732 238.464H108.754L110.89 243.674H110.981L113.116 238.464H115.138V246.219H113.549V241.171H113.484L111.477 246.181H110.394L108.387 241.152H108.323V246.219H106.732V238.464ZM118.129 238.464V246.219H116.49V238.464H118.129ZM125.964 238.464V246.219H124.548L121.175 241.338H121.117V246.219H119.478V238.464H120.917L124.264 243.341H124.333V238.464H125.964ZM128.959 238.464V246.219H127.319V238.464H128.959Z" fill="white"/>
<path d="M110.11 323.768H108.353L111.03 316.013H113.143L115.816 323.768H114.059L112.117 317.785H112.056L110.11 323.768ZM110 320.719H114.151V322H110V320.719ZM119.499 323.768H116.749V316.013H119.522C120.301 316.013 120.973 316.168 121.536 316.478C122.098 316.787 122.532 317.23 122.835 317.808C123.14 318.386 123.293 319.077 123.293 319.883C123.293 320.691 123.14 321.385 122.835 321.966C122.532 322.547 122.096 322.992 121.528 323.303C120.963 323.613 120.287 323.768 119.499 323.768ZM118.39 322.363H119.431C119.915 322.363 120.323 322.277 120.654 322.106C120.987 321.931 121.237 321.663 121.403 321.299C121.573 320.934 121.657 320.462 121.657 319.883C121.657 319.31 121.573 318.842 121.403 318.478C121.237 318.115 120.988 317.847 120.658 317.676C120.326 317.504 119.919 317.418 119.435 317.418H118.39V322.363ZM131.634 319.891C131.634 320.736 131.473 321.456 131.153 322.049C130.835 322.643 130.401 323.095 129.85 323.408C129.303 323.719 128.686 323.874 128.003 323.874C127.314 323.874 126.695 323.718 126.147 323.405C125.6 323.091 125.166 322.639 124.848 322.045C124.531 321.452 124.372 320.734 124.372 319.891C124.372 319.045 124.531 318.325 124.848 317.732C125.166 317.139 125.6 316.687 126.147 316.377C126.695 316.064 127.314 315.907 128.003 315.907C128.686 315.907 129.303 316.064 129.85 316.377C130.401 316.687 130.835 317.139 131.153 317.732C131.473 318.325 131.634 319.045 131.634 319.891ZM129.972 319.891C129.972 319.343 129.889 318.881 129.725 318.504C129.563 318.128 129.336 317.843 129.04 317.649C128.744 317.455 128.399 317.358 128.003 317.358C127.606 317.358 127.26 317.455 126.965 317.649C126.67 317.843 126.44 318.128 126.275 318.504C126.114 318.881 126.033 319.343 126.033 319.891C126.033 320.438 126.114 320.901 126.275 321.277C126.44 321.653 126.67 321.938 126.965 322.132C127.26 322.327 127.606 322.424 128.003 322.424C128.399 322.424 128.744 322.327 129.04 322.132C129.336 321.938 129.563 321.653 129.725 321.277C129.889 320.901 129.972 320.438 129.972 319.891Z" fill="white"/>
<path d="M222.53 340.247C222.53 341.092 222.37 341.813 222.049 342.406C221.731 342.999 221.297 343.452 220.746 343.765C220.198 344.075 219.583 344.23 218.898 344.23C218.209 344.23 217.591 344.074 217.043 343.761C216.495 343.448 216.062 342.995 215.744 342.402C215.426 341.809 215.267 341.091 215.267 340.247C215.267 339.402 215.426 338.682 215.744 338.088C216.062 337.495 216.495 337.043 217.043 336.733C217.591 336.42 218.209 336.264 218.898 336.264C219.583 336.264 220.198 336.42 220.746 336.733C221.297 337.043 221.731 337.495 222.049 338.088C222.37 338.682 222.53 339.402 222.53 340.247ZM220.867 340.247C220.867 339.699 220.786 339.237 220.622 338.861C220.46 338.485 220.231 338.2 219.937 338.006C219.641 337.811 219.295 337.714 218.898 337.714C218.502 337.714 218.157 337.811 217.861 338.006C217.565 338.2 217.336 338.485 217.172 338.861C217.01 339.237 216.93 339.699 216.93 340.247C216.93 340.795 217.01 341.257 217.172 341.633C217.336 342.009 217.565 342.294 217.861 342.488C218.157 342.683 218.502 342.78 218.898 342.78C219.295 342.78 219.641 342.683 219.937 342.488C220.231 342.294 220.46 342.009 220.622 341.633C220.786 341.257 220.867 340.795 220.867 340.247ZM226.849 336.37H228.47V341.777C228.47 342.277 228.357 342.711 228.133 343.08C227.911 343.448 227.601 343.732 227.206 343.932C226.809 344.131 226.348 344.23 225.823 344.23C225.356 344.23 224.933 344.149 224.551 343.984C224.173 343.818 223.872 343.565 223.65 343.227C223.427 342.887 223.318 342.458 223.321 341.944H224.952C224.958 342.148 225 342.324 225.077 342.47C225.158 342.613 225.268 342.725 225.407 342.803C225.548 342.879 225.715 342.917 225.907 342.917C226.108 342.917 226.279 342.874 226.418 342.788C226.559 342.7 226.667 342.571 226.74 342.402C226.813 342.232 226.849 342.024 226.849 341.777V336.37ZM234.616 336.37H236.255V341.406C236.255 341.972 236.12 342.466 235.851 342.891C235.582 343.314 235.208 343.645 234.725 343.882C234.243 344.117 233.682 344.234 233.04 344.234C232.397 344.234 231.834 344.117 231.352 343.882C230.87 343.645 230.495 343.314 230.227 342.891C229.96 342.466 229.826 341.972 229.826 341.406V336.37H231.465V341.266C231.465 341.561 231.529 341.823 231.658 342.053C231.79 342.283 231.974 342.463 232.212 342.595C232.448 342.726 232.725 342.792 233.04 342.792C233.358 342.792 233.635 342.726 233.87 342.595C234.107 342.463 234.29 342.283 234.419 342.053C234.55 341.823 234.616 341.561 234.616 341.266V336.37Z" fill="white"/>
<path d="M184.724 301.473C184.724 302.318 184.564 303.038 184.243 303.631C183.925 304.225 183.491 304.677 182.941 304.99C182.393 305.301 181.777 305.456 181.093 305.456C180.404 305.456 179.785 305.3 179.238 304.987C178.69 304.673 178.257 304.221 177.939 303.628C177.621 303.034 177.462 302.316 177.462 301.473C177.462 300.627 177.621 299.907 177.939 299.314C178.257 298.721 178.69 298.269 179.238 297.959C179.785 297.646 180.404 297.49 181.093 297.49C181.777 297.49 182.393 297.646 182.941 297.959C183.491 298.269 183.925 298.721 184.243 299.314C184.564 299.907 184.724 300.627 184.724 301.473ZM183.062 301.473C183.062 300.925 182.98 300.463 182.816 300.086C182.655 299.71 182.426 299.425 182.131 299.231C181.835 299.037 181.489 298.94 181.093 298.94C180.696 298.94 180.351 299.037 180.056 299.231C179.76 299.425 179.53 299.71 179.366 300.086C179.205 300.463 179.124 300.925 179.124 301.473C179.124 302.02 179.205 302.483 179.366 302.859C179.53 303.235 179.76 303.52 180.056 303.714C180.351 303.909 180.696 304.006 181.093 304.006C181.489 304.006 181.835 303.909 182.131 303.714C182.426 303.52 182.655 303.235 182.816 302.859C182.98 302.483 183.062 302.02 183.062 301.473ZM185.939 305.35V297.595H189.044C189.615 297.595 190.091 297.679 190.472 297.849C190.852 298.018 191.139 298.252 191.331 298.553C191.523 298.851 191.619 299.195 191.619 299.583C191.619 299.886 191.558 300.152 191.437 300.382C191.316 300.609 191.149 300.796 190.937 300.942C190.727 301.087 190.488 301.189 190.218 301.25V301.325C190.513 301.338 190.789 301.421 191.047 301.574C191.307 301.729 191.517 301.945 191.679 302.222C191.841 302.497 191.922 302.826 191.922 303.207C191.922 303.619 191.82 303.985 191.615 304.309C191.413 304.63 191.114 304.883 190.718 305.07C190.321 305.257 189.833 305.35 189.252 305.35H185.939ZM187.579 304.009H188.916C189.372 304.009 189.706 303.922 189.915 303.749C190.124 303.571 190.229 303.337 190.229 303.044C190.229 302.83 190.178 302.64 190.074 302.476C189.97 302.312 189.823 302.183 189.631 302.09C189.442 301.996 189.215 301.95 188.953 301.95H187.579V304.009ZM187.579 300.841H188.795C189.018 300.841 189.218 300.801 189.393 300.723C189.569 300.642 189.708 300.528 189.808 300.382C189.912 300.236 189.965 300.06 189.965 299.856C189.965 299.576 189.865 299.35 189.665 299.178C189.468 299.007 189.188 298.92 188.825 298.92H187.579V300.841ZM194.628 297.595V305.35H192.989V297.595H194.628Z" fill="white"/>
<path d="M62.23 275.476C62.23 276.284 62.0769 276.97 61.7709 277.536C61.4673 278.102 61.0528 278.536 60.5275 278.834C60.0046 279.131 59.4167 279.278 58.7636 279.278C58.1058 279.278 57.5155 279.129 56.9926 278.83C56.4697 278.532 56.0564 278.099 55.7528 277.532C55.4492 276.966 55.2974 276.281 55.2974 275.476C55.2974 274.669 55.4492 273.982 55.7528 273.415C56.0564 272.849 56.4697 272.418 56.9926 272.122C57.5155 271.823 58.1058 271.673 58.7636 271.673C59.4167 271.673 60.0046 271.823 60.5275 272.122C61.0528 272.418 61.4673 272.849 61.7709 273.415C62.0769 273.982 62.23 274.669 62.23 275.476ZM60.6432 275.476C60.6432 274.953 60.5649 274.512 60.4082 274.153C60.254 273.794 60.0359 273.522 59.754 273.336C59.4721 273.151 59.142 273.058 58.7636 273.058C58.3854 273.058 58.0552 273.151 57.7733 273.336C57.4913 273.522 57.2721 273.794 57.1154 274.153C56.9613 274.512 56.8841 274.953 56.8841 275.476C56.8841 275.999 56.9613 276.44 57.1154 276.799C57.2721 277.158 57.4913 277.431 57.7733 277.616C58.0552 277.802 58.3854 277.894 58.7636 277.894C59.142 277.894 59.4721 277.802 59.754 277.616C60.0359 277.431 60.254 277.158 60.4082 276.799C60.5649 276.44 60.6432 275.999 60.6432 275.476ZM63.3892 279.177V271.775H64.9544V275.039H65.0519L67.7158 271.775H69.5917L66.8447 275.089L69.6242 279.177H67.752L65.7242 276.133L64.9544 277.074V279.177H63.3892ZM70.4068 279.177V271.775H73.3273C73.8887 271.775 74.367 271.882 74.7622 272.096C75.1573 272.308 75.4586 272.604 75.6658 272.982C75.8754 273.358 75.9802 273.792 75.9802 274.283C75.9802 274.774 75.8743 275.209 75.6622 275.585C75.4502 275.96 75.1429 276.253 74.7405 276.463C74.3405 276.672 73.8562 276.777 73.2875 276.777H71.4261V275.523H73.0344C73.3357 275.523 73.5839 275.471 73.7791 275.368C73.9767 275.262 74.1236 275.116 74.2201 274.931C74.3188 274.742 74.3682 274.526 74.3682 274.283C74.3682 274.038 74.3188 273.824 74.2201 273.64C74.1236 273.454 73.9767 273.311 73.7791 273.21C73.5814 273.106 73.3309 273.055 73.0273 273.055H71.9718V279.177H70.4068ZM83.7992 275.476C83.7992 276.284 83.6463 276.97 83.3402 277.536C83.0366 278.102 82.6221 278.536 82.0968 278.834C81.574 279.131 80.986 279.278 80.333 279.278C79.6752 279.278 79.0848 279.129 78.5619 278.83C78.039 278.532 77.6257 278.099 77.3221 277.532C77.0185 276.966 76.8667 276.281 76.8667 275.476C76.8667 274.669 77.0185 273.982 77.3221 273.415C77.6257 272.849 78.039 272.418 78.5619 272.122C79.0848 271.823 79.6752 271.673 80.333 271.673C80.986 271.673 81.574 271.823 82.0968 272.122C82.6221 272.418 83.0366 272.849 83.3402 273.415C83.6463 273.982 83.7992 274.669 83.7992 275.476ZM82.2125 275.476C82.2125 274.953 82.1341 274.512 81.9776 274.153C81.8234 273.794 81.6053 273.522 81.3234 273.336C81.0414 273.151 80.7113 273.058 80.333 273.058C79.9546 273.058 79.6246 273.151 79.3426 273.336C79.0607 273.522 78.8414 273.794 78.6848 274.153C78.5305 274.512 78.4535 274.953 78.4535 275.476C78.4535 275.999 78.5305 276.44 78.6848 276.799C78.8414 277.158 79.0607 277.431 79.3426 277.616C79.6246 277.802 79.9546 277.894 80.333 277.894C80.7113 277.894 81.0414 277.802 81.3234 277.616C81.6053 277.431 81.8234 277.158 81.9776 276.799C82.1341 276.44 82.2125 275.999 82.2125 275.476ZM84.9586 279.177V271.775H86.5236V275.039H86.6212L89.2852 271.775H91.161L88.414 275.089L91.1935 279.177H89.3212L87.2935 276.133L86.5236 277.074V279.177H84.9586ZM93.6424 279.177L91.5243 271.775H93.2339L94.4592 276.919H94.5207L95.8725 271.775H97.3359L98.6843 276.929H98.7493L99.9745 271.775H101.685L99.5664 279.177H98.0416L96.6315 274.337H96.5737L95.1677 279.177H93.6424ZM107.095 271.775H108.659V276.582C108.659 277.122 108.53 277.594 108.273 277.999C108.017 278.404 107.66 278.72 107.199 278.946C106.739 279.171 106.203 279.282 105.591 279.282C104.976 279.282 104.439 279.171 103.979 278.946C103.519 278.72 103.161 278.404 102.905 277.999C102.65 277.594 102.522 277.122 102.522 276.582V271.775H104.088V276.449C104.088 276.731 104.149 276.981 104.272 277.2C104.397 277.42 104.573 277.591 104.799 277.717C105.026 277.842 105.29 277.905 105.591 277.905C105.894 277.905 106.158 277.842 106.382 277.717C106.609 277.591 106.783 277.42 106.906 277.2C107.032 276.981 107.095 276.731 107.095 276.449V271.775Z" fill="white"/>
<path d="M18.6086 308.435C18.6086 309.242 18.4556 309.928 18.1495 310.495C17.8459 311.061 17.4314 311.494 16.9061 311.793C16.3833 312.089 15.7953 312.237 15.1423 312.237C14.4845 312.237 13.8941 312.087 13.3713 311.789C12.8484 311.49 12.435 311.058 12.1314 310.491C11.8278 309.925 11.676 309.239 11.676 308.435C11.676 307.627 11.8278 306.941 12.1314 306.374C12.435 305.808 12.8484 305.376 13.3713 305.081C13.8941 304.781 14.4845 304.632 15.1423 304.632C15.7953 304.632 16.3833 304.781 16.9061 305.081C17.4314 305.376 17.8459 305.808 18.1495 306.374C18.4556 306.941 18.6086 307.627 18.6086 308.435ZM17.0219 308.435C17.0219 307.911 16.9436 307.47 16.7869 307.111C16.6327 306.753 16.4146 306.48 16.1327 306.294C15.8508 306.109 15.5206 306.016 15.1423 306.016C14.764 306.016 14.4339 306.109 14.152 306.294C13.87 306.48 13.6507 306.753 13.4941 307.111C13.3399 307.47 13.2628 307.911 13.2628 308.435C13.2628 308.957 13.3399 309.398 13.4941 309.758C13.6507 310.116 13.87 310.389 14.152 310.574C14.4339 310.76 14.764 310.852 15.1423 310.852C15.5206 310.852 15.8508 310.76 16.1327 310.574C16.4146 310.389 16.6327 310.116 16.7869 309.758C16.9436 309.398 17.0219 308.957 17.0219 308.435ZM24.6764 307.126C24.6258 306.951 24.5547 306.795 24.4631 306.66C24.3715 306.522 24.2596 306.407 24.1269 306.313C23.9969 306.217 23.8475 306.143 23.6788 306.093C23.5126 306.041 23.3282 306.016 23.1258 306.016C22.7474 306.016 22.4149 306.11 22.1282 306.298C21.8438 306.486 21.6221 306.76 21.4631 307.119C21.3041 307.475 21.2246 307.911 21.2246 308.427C21.2246 308.943 21.3029 309.382 21.4595 309.743C21.6161 310.104 21.8378 310.38 22.1245 310.57C22.4113 310.758 22.7499 310.852 23.1402 310.852C23.4944 310.852 23.7969 310.79 24.0475 310.664C24.3005 310.537 24.4933 310.357 24.6258 310.126C24.7607 309.895 24.8282 309.621 24.8282 309.305L25.1462 309.353H23.2378V308.174H26.3354V309.106C26.3354 309.758 26.1981 310.316 25.9234 310.783C25.6487 311.249 25.2703 311.608 24.7884 311.861C24.3065 312.111 23.7547 312.237 23.133 312.237C22.439 312.237 21.8294 312.084 21.3041 311.778C20.7788 311.47 20.3691 311.033 20.0752 310.465C19.7836 309.897 19.6378 309.223 19.6378 308.441C19.6378 307.841 19.7246 307.306 19.8981 306.837C20.0739 306.365 20.3198 305.965 20.6354 305.637C20.9511 305.309 21.3185 305.059 21.7378 304.889C22.1571 304.717 22.6113 304.632 23.1005 304.632C23.5197 304.632 23.9101 304.694 24.2716 304.816C24.633 304.937 24.9535 305.108 25.233 305.33C25.515 305.552 25.745 305.815 25.9234 306.121C26.1016 306.425 26.2161 306.76 26.2667 307.126H24.6764ZM27.511 312.136V304.734H30.4748C31.0194 304.734 31.4737 304.814 31.8376 304.975C32.2014 305.137 32.4749 305.361 32.658 305.648C32.8412 305.932 32.9328 306.259 32.9328 306.631C32.9328 306.92 32.8749 307.174 32.7592 307.394C32.6436 307.611 32.4845 307.789 32.2821 307.929C32.0821 308.065 31.8532 308.163 31.5953 308.221V308.293C31.8773 308.306 32.1412 308.385 32.3869 308.532C32.6352 308.679 32.8363 308.885 32.9905 309.15C33.1448 309.413 33.2219 309.726 33.2219 310.09C33.2219 310.483 33.1243 310.833 32.9291 311.142C32.7364 311.447 32.4508 311.69 32.0724 311.868C31.6942 312.047 31.2279 312.136 30.6736 312.136H27.511ZM29.076 310.856H30.352C30.7881 310.856 31.1062 310.773 31.3062 310.607C31.5062 310.438 31.6062 310.214 31.6062 309.934C31.6062 309.73 31.5568 309.548 31.4581 309.392C31.3592 309.235 31.2182 309.113 31.0351 309.024C30.8544 308.935 30.6388 308.89 30.3882 308.89H29.076V310.856ZM29.076 307.831H30.2364C30.4508 307.831 30.6412 307.794 30.8074 307.719C30.9761 307.642 31.1086 307.533 31.205 307.394C31.3038 307.254 31.3532 307.086 31.3532 306.891C31.3532 306.624 31.258 306.408 31.0677 306.244C30.8797 306.08 30.6122 305.999 30.2653 305.999H29.076V307.831ZM35.5161 312.136H33.839L36.3945 304.734H38.4113L40.9632 312.136H39.2861L37.4319 306.425H37.374L35.5161 312.136ZM35.4113 309.226H39.3728V310.448H35.4113V309.226ZM44.4782 312.136H41.8541V304.734H44.4999C45.2445 304.734 45.8854 304.882 46.4228 305.178C46.9602 305.472 47.3734 305.895 47.6626 306.446C47.9541 306.998 48.0999 307.658 48.0999 308.427C48.0999 309.199 47.9541 309.861 47.6626 310.415C47.3734 310.97 46.9577 311.395 46.4156 311.691C45.8758 311.987 45.23 312.136 44.4782 312.136ZM43.4192 310.795H44.4131C44.8758 310.795 45.265 310.713 45.5806 310.549C45.8987 310.383 46.1373 310.126 46.2963 309.779C46.4577 309.429 46.5385 308.979 46.5385 308.427C46.5385 307.88 46.4577 307.433 46.2963 307.086C46.1373 306.739 45.9 306.484 45.5842 306.32C45.2686 306.156 44.8794 306.074 44.4168 306.074H43.4192V310.795ZM50.8243 304.734V312.136H49.2593V304.734H50.8243ZM52.1119 312.136V304.734H55.0759C55.6205 304.734 56.0746 304.814 56.4385 304.975C56.8023 305.137 57.0759 305.361 57.259 305.648C57.4421 305.932 57.5337 306.259 57.5337 306.631C57.5337 306.92 57.4758 307.174 57.3602 307.394C57.2445 307.611 57.0855 307.789 56.8831 307.929C56.6831 308.065 56.4541 308.163 56.1964 308.221V308.293C56.4783 308.306 56.7421 308.385 56.9879 308.532C57.2361 308.679 57.4372 308.885 57.5915 309.15C57.7457 309.413 57.8229 309.726 57.8229 310.09C57.8229 310.483 57.7252 310.833 57.5301 311.142C57.3373 311.447 57.0517 311.69 56.6734 311.868C56.2951 312.047 55.8289 312.136 55.2746 312.136H52.1119ZM53.6771 310.856H54.953C55.3891 310.856 55.7071 310.773 55.9072 310.607C56.1072 310.438 56.2071 310.214 56.2071 309.934C56.2071 309.73 56.1578 309.548 56.059 309.392C55.9602 309.235 55.8192 309.113 55.6361 309.024C55.4554 308.935 55.2397 308.89 54.9891 308.89H53.6771V310.856ZM53.6771 307.831H54.8373C55.0517 307.831 55.2421 307.794 55.4084 307.719C55.577 307.642 55.7095 307.533 55.806 307.394C55.9048 307.254 55.9541 307.086 55.9541 306.891C55.9541 306.624 55.859 306.408 55.6686 306.244C55.4807 306.08 55.2132 305.999 54.8662 305.999H53.6771V307.831ZM65.6436 308.435C65.6436 309.242 65.4906 309.928 65.1846 310.495C64.881 311.061 64.4665 311.494 63.9412 311.793C63.4183 312.089 62.8304 312.237 62.1773 312.237C61.5195 312.237 60.9292 312.087 60.4063 311.789C59.8833 311.49 59.4701 311.058 59.1665 310.491C58.8629 309.925 58.7111 309.239 58.7111 308.435C58.7111 307.627 58.8629 306.941 59.1665 306.374C59.4701 305.808 59.8833 305.376 60.4063 305.081C60.9292 304.781 61.5195 304.632 62.1773 304.632C62.8304 304.632 63.4183 304.781 63.9412 305.081C64.4665 305.376 64.881 305.808 65.1846 306.374C65.4906 306.941 65.6436 307.627 65.6436 308.435ZM64.0569 308.435C64.0569 307.911 63.9785 307.47 63.822 307.111C63.6677 306.753 63.4496 306.48 63.1678 306.294C62.8858 306.109 62.5557 306.016 62.1773 306.016C61.799 306.016 61.4689 306.109 61.187 306.294C60.9051 306.48 60.6858 306.753 60.5291 307.111C60.3749 307.47 60.2978 307.911 60.2978 308.435C60.2978 308.957 60.3749 309.398 60.5291 309.758C60.6858 310.116 60.9051 310.389 61.187 310.574C61.4689 310.76 61.799 310.852 62.1773 310.852C62.5557 310.852 62.8858 310.76 63.1678 310.574C63.4496 310.389 63.6677 310.116 63.822 309.758C63.9785 309.398 64.0569 308.957 64.0569 308.435Z" fill="white"/>
<path d="M245.264 8.7243L245.749 19.872C245.749 19.872 245.264 23.2648 245.749 25.6882C246.152 27.7042 248.657 27.6269 248.657 27.6269L251.08 30.535C258.706 43.2572 265.131 56.6608 265.621 58.6466C265.621 58.6466 266.912 63.5113 268.044 64.9475C270.002 67.4298 276.086 69.7884 276.086 69.7884C276.086 69.7884 279.192 72.1471 279.192 75.1258C279.192 84.062 279.192 88.2123 279.192 88.2123L285.493 98.8753C285.493 98.8753 288.659 104.035 289.37 106.63C289.733 107.95 290.824 110.508 290.824 110.508L297.61 122.909H276.086C276.086 122.909 271.76 121.881 268.044 124.895C265.597 126.881 263.003 128.571 260.774 130.38C255.879 134.351 246.715 132.815 245.247 132.318C240.293 130.644 237.024 124.895 237.024 124.895C237.024 124.895 241.33 123.594 242.309 123.594C243.288 123.594 244.295 122.163 244.295 121.171C244.295 120.178 244.113 119.289 243.325 118.263C242.828 117.613 241.871 116.809 241.871 116.809C241.871 116.809 230.733 110.519 229.754 110.023C228.775 109.527 221.999 106.63 221.999 106.63C221.999 106.63 222.853 100.367 221.999 96.9366C220.096 89.2819 217.436 85.038 214.244 77.0646C210.533 67.7907 204.292 60.3951 205.107 50.9231C205.47 46.7047 206.192 44.5219 208.043 40.994C211.063 35.2439 218.813 28.0861 218.813 28.0861C218.813 28.0861 229.093 18.6534 231.541 16.6676C233.988 14.6817 245.264 8.7243 245.264 8.7243Z" fill="#F1EFEF"/>
<path d="M222.484 107.115L241.871 117.293C243.649 119.07 246.137 122.722 241.871 123.109C240.707 123.215 238.625 123.708 236.055 124.427M236.055 124.427C229.213 126.337 219.989 129.536 214.244 131.834C211.821 132.803 208.271 137.188 208.913 141.043C209.556 144.897 206.489 149.767 202.127 152.19C199.551 153.622 193.888 161.399 193.888 163.338C193.888 165.277 172.077 196.297 162.868 199.205C155.501 201.531 150.428 202.113 148.812 202.113M236.055 124.427C237.671 126.896 241.262 131.792 244.295 132.803C250.111 134.742 253.037 133.549 257.866 131.834C262.12 130.322 265.621 127.472 267.56 125.533C269.498 123.594 272.245 123.109 273.376 123.109H299.064M273.376 195.327C265.621 205.183 249.82 224.99 248.657 225.377C247.494 225.765 246.557 229.093 246.233 230.709C246.395 242.019 246.621 265.315 246.233 268.03C245.846 270.744 244.134 273.361 243.325 274.33L235.086 287.417C233.471 286.125 227.428 280.05 225.877 277.723C223.938 274.815 216.712 270.069 209.882 269.484M273.376 195.327C276.93 189.511 284.233 176.812 285.008 172.547C285.977 167.216 294.702 153.644 296.641 153.644M273.376 195.327C274.83 207.606 280.84 234.877 293.248 245.734C305.656 256.591 307.465 258.013 306.819 257.367M296.641 153.644C298.191 153.644 302.134 148.798 303.911 146.374C303.911 144.435 303.62 140.17 302.457 138.619C301.003 136.681 300.033 127.956 302.457 125.533M296.641 153.644C296.641 154.808 299.896 160.915 303.911 160.915C307.304 160.915 326.691 160.236 330.568 159.461M306.819 257.367L326.691 244.765C327.984 243.795 329.599 241.954 329.599 238.464C329.599 234.102 331.053 227.316 336.869 222.954C342.685 218.592 362.031 219.062 367.404 236.525M306.819 257.367L332.022 280.147M302.457 125.533C304.395 123.594 301.003 123.109 299.064 123.109M302.457 125.533C303.911 124.725 305.849 122.14 306.334 121.655C307.02 120.97 306.746 117.011 308.758 114.87C311.148 112.326 313.447 113.416 316.512 113.416C318.936 113.416 317.482 111.962 321.359 111.477C323.764 111.177 325.334 114.579 325.721 115.354C326.109 116.13 329.308 115.354 330.568 115.839C332.567 116.608 333.186 117.39 333.961 119.717M330.568 159.461C334.446 158.685 334.77 154.291 334.446 152.19C334.446 148.959 332.992 141.043 332.992 141.043C332.992 141.043 330.734 131.463 332.022 125.533C332.531 123.193 334.737 122.043 333.961 119.717M330.568 159.461V165.762C334.77 165.115 344.225 164.792 347.048 164.792C351.41 164.792 373.567 167.216 378.552 178.848C381.46 185.633 380.006 192.419 380.006 193.873C380.006 195.327 393.577 195.327 393.577 195.327C396.809 195.327 401.914 197.072 396.485 202.113C391.057 207.153 375.159 227.478 367.404 236.525M299.064 123.109C295.995 119.07 289.952 110.605 290.34 109.054C290.727 107.503 286.947 100.652 285.008 97.4212L279.677 89.1816C279.516 87.566 279.289 82.9777 279.677 77.5492C280.064 72.1208 277.577 69.7943 276.284 69.3096C273.376 68.825 267.56 66.9832 267.56 63.4934C267.56 59.1313 253.019 29.5657 248.657 27.6269C245.167 26.0759 245.588 23.7495 246.233 22.7801V9.20898M333.961 119.717C333.961 119.717 343.75 117.538 348.017 120.686C351.699 123.401 351.604 125.436 352.379 130.864C353.072 135.711 356.934 140.008 361.588 141.527M361.588 141.527C367.404 140.558 365.465 128.926 365.465 124.563C365.465 118.097 358.68 109.538 359.165 97.4212C359.61 86.2735 362.073 74.6412 370.312 71.7331C377.851 69.0726 386.469 65.4322 389.7 63.4934M361.588 141.527C368.858 141.527 375.159 140.073 380.491 142.497C385.858 144.937 384.756 145.793 390.184 153.16C395.613 160.527 405.27 165.983 414.418 165.762M367.404 236.525C373.22 255.428 389.7 255.428 393.577 255.428C397.455 255.428 410.541 253.489 414.418 250.581C418.296 247.673 424.097 240.887 431.382 239.433C434.448 238.822 436.537 240.241 437.669 240.887M414.418 165.762C418.015 165.762 422.173 166.246 422.173 166.246C425.081 167.538 432.836 171.481 434.775 178.848C437.198 188.057 429.444 191.934 428.959 193.873C428.571 195.424 428.798 218.107 428.959 229.255L437.669 240.887M414.418 165.762C429.372 165.382 452.708 164.792 452.708 164.792C456.586 163.985 464.535 161.787 465.31 159.461M332.022 280.147C332.831 281.923 334.446 285.963 334.446 287.902C334.446 290.325 335.9 296.626 341.231 300.019C346.563 303.411 349.956 309.712 350.925 313.105C351.894 316.498 350.63 320.339 348.502 324.253C346.962 327.084 344.056 327.455 343.17 330.554C342.201 333.946 342.685 339.763 337.839 343.155M332.022 280.147L388.246 281.116C392.285 281.116 400.75 281.601 402.301 283.539M437.669 240.887C438.8 242.179 442.239 246.704 443.015 250.581C443.984 255.428 448.831 255.428 450.285 255.428C451.461 255.428 459.283 255.111 465.31 262.663M465.31 262.663C466.742 264.456 468.526 266.552 469.188 269.484C472.58 284.509 481.305 292.264 488.09 288.386C494.876 284.509 504.893 269.968 508.932 265.121C516.041 257.044 530.258 242.766 541.89 241.857C551.507 241.104 556.43 240.403 564.67 247.673M465.31 262.663C459.656 268.815 447.28 281.019 443.015 284.509C437.683 288.871 428.959 293.718 423.627 293.718C419.362 293.718 414.742 288.224 412.964 285.478C410.056 285.64 403.852 285.478 402.301 283.539M465.31 159.461C465.795 158.007 454.647 146.374 450.77 138.619C444.907 126.894 445.923 113.9 447.377 105.176C449.061 95.0787 462.241 74.8027 464.341 68.3403M465.31 159.461L482.759 185.633C484.052 187.41 488.39 191.806 492.452 186.118C497.299 179.333 513.294 167.821 523.957 163.823C527.834 162.369 528.474 156.645 530.742 152.675C536.558 142.497 557.4 138.619 561.277 138.619M402.301 283.539C403.755 284.186 406.567 286.641 406.179 291.294C405.694 297.111 407.148 301.957 404.725 304.381C402.301 306.804 400.363 305.35 399.878 310.197C399.393 315.044 401.817 322.799 399.878 326.676C397.939 330.554 390.184 340.247 391.154 346.548C392.123 352.849 392.123 358.665 398.424 367.389" stroke="#DFDADA" stroke-width="1.93873"/>
<path d="M180.934 83.4866C190.628 83.4866 204.684 93.1803 214.377 101.905C215.153 102.68 219.709 108.69 221.163 106.751C222.617 104.813 223.029 102.231 222.617 99.9658C221.647 94.6343 219.709 90.7569 219.709 90.7569C219.709 90.7569 203.298 57.7984 204.684 48.1048C206.068 38.4111 215.877 30.1258 219.709 26.2941C223.541 22.4624 233.764 13.6177 242.004 9.81485C248.305 6.90675 256.06 7.39143 259.453 9.33015C263.926 11.8864 279.325 17.9222 287.08 21.4472C294.834 24.9722 323.431 31.9949 337.487 30.6562C351.542 29.3175 351.882 25.3437 354.935 22.9013C357.988 20.4589 362.448 20.4779 364.144 22.9013C367.537 27.7481 371.414 36.4724 377.231 45.1967C381.824 52.0879 386.44 62.1606 394.194 64.0993C397.587 64.9475 397.647 70.4002 394.679 73.793C391.286 77.6704 384.598 85.3284 381.108 90.7569C376.746 97.5424 381.108 101.905 386.924 101.905C391.867 101.905 399.526 98.9965 402.434 88.8181C403.126 86.3947 404.857 83.9713 406.796 83.9713H432.969C434.423 84.1328 438.838 77.4555 450.418 72.3389C471.259 63.1299 484.697 70.7637 495.493 75.7317C511.84 90.6357 556.563 127.593 565.772 143.103C571.382 152.551 577.404 162.853 577.404 167.821C577.404 171.093 573.204 191.571 571.104 199.81C570.296 211.281 568.486 233.738 567.711 237.616C566.935 241.493 564.803 250.379 560.925 251.672C558.017 252.641 551.065 251.672 548.324 251.672C545.9 251.672 541.538 252.641 539.599 256.518C537.176 262.335 536.206 272.513 536.206 274.452C536.206 276.183 534.66 286.417 534.33 292.039C534.261 293.201 533.858 294.33 533.048 295.168C527.757 300.643 519.67 305.948 517.304 315.65C515.824 321.718 515.934 325.55 517.304 331.644C518.383 336.445 522.151 340.666 522.151 343.277C522.151 345.887 521.666 372.357 519.243 388.837C518.93 390.96 516.334 400.954 514.88 401.923C512.457 403.539 508.095 399.984 506.641 399.015C505.187 398.046 501.191 402.03 499.371 405.316C497.826 408.103 499.371 416.173 499.371 418.887C499.371 421.601 497.27 424.219 495.008 425.188C493.393 426.157 487.248 425.938 483.376 426.157C476.942 426.521 476.591 435.851 470.29 435.851C466.393 435.851 464.473 430.842 463.989 428.096V404.25C463.989 404.061 461.834 402.756 457.688 401.438C452.213 399.699 442.321 391.06 442.321 382.336C442.321 375.066 434.423 366.057 427.638 365.572L399.041 366.057C398.072 368.48 388.378 375.912 383.531 376.72C378.685 377.527 364.629 378.658 353.966 371.388C350.188 368.813 352.027 361.417 344.757 351.031C337.487 340.646 323.287 331.623 313.737 330.19C304.043 328.736 288.534 331.159 284.656 332.614C281.554 333.777 280.072 337.053 281.748 339.399C284.171 342.792 286.941 342.792 287.564 347.154C288.741 355.394 287.08 355.878 284.171 359.271C282.51 361.21 276.417 359.756 276.417 363.149C276.417 368.48 273.024 367.026 271.085 367.026C257.514 364.603 234.734 363.536 226.979 367.026C217.285 371.388 216.316 380.597 210.984 389.321C206.076 397.352 199.254 391.26 197.535 385.246C196.566 381.853 183.784 355.918 180.087 353.742C176.779 351.794 172.533 353.293 170.756 354.909C165.909 358.302 156.312 367.608 154.761 369.934C153.21 372.261 148.783 372.196 146.522 371.873C143.774 371.226 135.885 370.03 130.527 370.903C124.615 371.867 123.752 376.182 122.79 380.994L122.772 381.082C122.032 384.785 121.01 398.046 117.925 415.494C117.412 418.402 104.354 418.887 94.6604 414.04C82.6153 408.018 80.6046 398.53 79.1506 394.168C77.3735 388.837 79.1506 381.082 81.574 377.204C84.627 372.32 87.3902 361.21 87.3902 351.516C87.3902 344.182 83.5127 335.037 76.7272 330.19C71.4211 326.4 62.6714 328.736 60.248 333.098C57.8942 337.335 49.585 339.884 43.2841 339.884C36.9646 339.884 31.148 338.406 26.8049 333.098C22.4427 327.767 19.8871 321.829 13.5861 317.467C9.13076 314.383 5.96351 305.471 12.2644 299.655C16.8253 295.445 25.4477 288.023 27.7741 286.084C29.7129 284.468 28.7435 281.399 27.7741 280.268C26.3201 278.571 23.412 276.875 21.4733 275.421C19.3852 273.854 18.5652 267.181 22.9273 266.212C27.6587 265.16 52.9084 259.911 61.2172 250.217C67.0334 243.432 67.5181 229.861 70.9109 221.621C73.6251 215.029 79.1505 211.928 83.9973 210.958C83.9973 206.596 84.9667 201.749 83.9973 201.265C81.3962 199.964 72.3649 201.749 68.4875 198.356C65.3733 195.632 57.8821 188.217 55.0534 185.404C54.3403 184.694 53.938 183.746 53.9201 182.74C53.5656 162.855 52.493 124.896 52.493 116.93C52.493 106.751 42.0435 96.9918 36.4985 93.6649C28.259 88.7213 24.4299 78.3068 28.2588 68.4614C31.6517 59.7372 29.2282 53.4363 29.2282 47.1354C29.2282 40.8345 39.1039 42.4705 47.1614 47.1354C56.3704 52.4669 94.6603 59.7372 112.594 59.7372C121.803 59.7372 141.998 69.4308 148.945 74.2776C157.023 77.6704 171.24 83.4866 180.934 83.4866Z" stroke="#DFDADA" stroke-width="3.39278"/>
<path d="M284.656 332.613C281.554 333.777 280.072 337.053 281.748 339.399C284.171 342.792 286.941 342.792 287.564 347.154C288.741 355.394 287.08 355.878 284.171 359.271C282.51 361.21 276.417 359.756 276.417 363.149C276.417 368.48 273.024 367.026 271.085 367.026C257.514 364.603 234.734 363.536 226.979 367.026C217.285 371.388 216.316 380.597 210.984 389.321C206.076 397.352 199.254 391.26 197.535 385.246C196.566 381.853 183.784 355.918 180.087 353.742C176.779 351.794 172.533 353.293 170.756 354.909C165.909 358.302 156.312 367.608 154.761 369.934C153.21 372.261 148.783 372.196 146.522 371.873C143.774 371.226 135.885 370.03 130.527 370.903C124.615 371.867 123.752 376.182 122.79 380.994L122.772 381.082C122.032 384.785 121.01 398.046 117.925 415.494C117.412 418.402 104.354 418.887 94.6604 414.04C82.6153 408.018 80.6047 398.53 79.1506 394.168C77.3735 388.837 79.1506 381.082 81.574 377.204C84.627 372.32 87.3902 361.21 87.3902 351.516C87.3902 344.182 83.5127 335.037 76.7272 330.19C71.4211 326.4 62.6714 328.736 60.248 333.098C57.8942 337.335 49.585 339.884 43.2841 339.884C36.9646 339.884 31.148 338.406 26.8049 333.098C22.4427 327.767 19.8871 321.829 13.5861 317.467C9.13076 314.383 5.96351 305.471 12.2644 299.655C16.8253 295.445 25.4477 288.023 27.7741 286.084C29.7129 284.468 28.7435 281.399 27.7741 280.268C26.3201 278.571 23.412 276.875 21.4733 275.421C19.3852 273.854 18.5652 267.181 22.9273 266.212C27.6587 265.16 52.9084 259.911 61.2172 250.217C67.0334 243.432 67.5181 229.861 70.9109 221.621C73.6251 215.029 79.1505 211.928 83.9973 210.958C83.9973 206.596 84.9667 201.749 83.9973 201.264C81.3962 199.964 72.3649 201.749 68.4875 198.356C65.3733 195.632 57.8821 188.217 55.0534 185.404C54.3403 184.694 53.938 183.746 53.9201 182.74C53.5656 162.855 52.493 124.896 52.493 116.93C52.493 106.751 42.0435 96.9918 36.4985 93.6649C28.259 88.7213 24.4299 78.3068 28.2588 68.4614C31.6517 59.7372 29.2282 53.4363 29.2282 47.1354C29.2282 40.8345 39.1039 42.4705 47.1614 47.1354C56.3704 52.4669 94.6604 59.7372 112.594 59.7372C121.803 59.7372 141.998 69.4308 148.945 74.2776C153.077 76.0131 158.815 78.3827 164.733 80.2835" stroke="black" stroke-width="3.39278"/>
<path d="M223.159 77.5493H225.181L227.316 82.7596H227.407L229.543 77.5493H231.565V85.3042H229.974V80.2567H229.91L227.903 85.2663H226.82L224.813 80.2377H224.748V85.3042H223.159V77.5493ZM234.252 85.3042H232.496L235.172 77.5493H237.285L239.959 85.3042H238.201L236.259 79.3214H236.199L234.252 85.3042ZM234.143 82.256H238.292V83.5359H234.143V82.256ZM240.892 85.3042V77.5493H242.531V80.9685H242.634L245.424 77.5493H247.39L244.512 81.0215L247.424 85.3042H245.463L243.338 82.1158L242.531 83.1004V85.3042H240.892ZM253.034 77.5493H254.673V82.5854C254.673 83.1508 254.538 83.6457 254.269 84.0698C254 84.4939 253.626 84.8245 253.143 85.0618C252.661 85.2966 252.1 85.414 251.458 85.414C250.815 85.414 250.251 85.2966 249.77 85.0618C249.288 84.8245 248.913 84.4939 248.645 84.0698C248.378 83.6457 248.244 83.1508 248.244 82.5854V77.5493H249.883V82.4453C249.883 82.7407 249.947 83.0032 250.076 83.2329C250.208 83.4627 250.392 83.6432 250.63 83.7744C250.866 83.9057 251.143 83.9713 251.458 83.9713C251.776 83.9713 252.053 83.9057 252.288 83.7744C252.525 83.6432 252.708 83.4627 252.837 83.2329C252.968 83.0032 253.034 82.7407 253.034 82.4453V77.5493ZM256.022 85.3042V77.5493H259.081C259.668 77.5493 260.167 77.654 260.581 77.8635C260.998 78.0706 261.315 78.3646 261.532 78.7458C261.751 79.1245 261.862 79.57 261.862 80.0825C261.862 80.5974 261.75 81.0405 261.528 81.4116C261.306 81.7801 260.984 82.0628 260.563 82.2598C260.143 82.4567 259.636 82.5552 259.04 82.5552H256.991V81.2374H258.775C259.088 81.2374 259.348 81.1945 259.555 81.1087C259.762 81.0228 259.916 80.8941 260.017 80.7224C260.121 80.5508 260.172 80.3374 260.172 80.0825C260.172 79.825 260.121 79.6079 260.017 79.4312C259.916 79.2545 259.761 79.1207 259.552 79.0298C259.344 78.9364 259.083 78.8897 258.767 78.8897H257.662V85.3042H256.022ZM260.21 81.7751L262.138 85.3042H260.328L258.442 81.7751H260.21ZM265.769 85.3042H263.02V77.5493H265.791C266.572 77.5493 267.244 77.7045 267.806 78.015C268.369 78.323 268.802 78.766 269.105 79.3441C269.41 79.9222 269.563 80.6139 269.563 81.4192C269.563 82.2269 269.41 82.9212 269.105 83.5017C268.802 84.0824 268.366 84.5279 267.799 84.8384C267.233 85.1489 266.556 85.3042 265.769 85.3042ZM264.659 83.8994H265.7C266.185 83.8994 266.593 83.8135 266.924 83.6419C267.257 83.4677 267.507 83.1988 267.674 82.8353C267.843 82.4693 267.927 81.9972 267.927 81.4192C267.927 80.8461 267.843 80.3779 267.674 80.0144C267.507 79.6508 267.258 79.3832 266.927 79.2115C266.597 79.0399 266.189 78.9541 265.704 78.9541H264.659V83.8994ZM272.417 77.5493V85.3042H270.778V77.5493H272.417Z" fill="#AFA2A2"/>
<path d="M164.807 81.4267C159.475 84.8195 149.979 94.629 147.749 95.9672C145.325 97.4212 140.478 102.268 137.57 105.176C134.143 108.604 131.073 111.865 129.909 113.416C128.455 115.354 127.486 122.14 128.455 125.533C130.118 131.349 134.923 137.095 136.695 141.527C139.603 148.798 138.473 158.814 139.118 162.853C140.088 177.394 142.486 191.934 147.749 201.143C150.828 206.532 157.442 231.678 172.952 241.857C180.029 246.501 183.171 251.55 184.585 256.397C185.998 261.244 192.339 267.545 200.094 268.03C207.849 268.514 217.543 269.968 223.359 275.784C227.694 280.119 230.629 284.024 232.083 284.993L283.945 332.977" stroke="black" stroke-width="1.93873"/>
</g>
<defs>
<clipPath id="clip0_1998_8">
<rect width="586.466" height="443" fill="white"/>
</clipPath>
</defs>
</svg>
